<svg width="316" height="146" viewBox="0 0 316 146" fill="none" xmlns="http://www.w3.org/2000/svg">
<path fill-rule="evenodd" clip-rule="evenodd" d="M159.86 89.9485C138.526 57.5017 147.414 17.8738 176.795 0C191.888 8.88424 201.881 23.6503 204.896 42.2616C199.935 38.7149 195.184 37.3454 190.013 36.6255C188.154 29.936 183.842 23.0885 176.812 16.7326C157.844 34.2552 154.759 63.05 171.798 84.5934C169.186 87.6309 163.103 89.2813 159.86 89.9485Z" fill="#FF0019"/>
<path fill-rule="evenodd" clip-rule="evenodd" d="M207.298 69.8975C191.888 105.54 152.252 117.584 122.398 103.415C121.556 85.9102 129.883 69.1074 143.785 56.3956C143.522 62.3653 144.468 67.7204 146.712 72.461C142.137 77.6932 137.824 84.8743 136.369 94.2502C161.403 100.536 187.138 88.579 195.798 62.4882C199.742 62.9973 204.966 67.5448 207.298 69.8975Z" fill="#FF0019"/>
<path fill-rule="evenodd" clip-rule="evenodd" d="M170.536 39.7684C209.314 38.9959 239.08 68.2822 238.519 102.713C222.97 110.772 201.705 111.264 184.385 103.889C189.907 101.642 194.009 98.1656 197.375 94.1624C204.019 96.164 216.186 96.9014 224.39 93.7937C219.955 67.5975 197.025 50.426 169.747 53.3757C168.555 49.5481 169.362 42.8586 170.536 39.7684" fill="#FF0019"/>
<path d="M0 109.859H49.6287V93.4074H17.9512V23.2816H0V109.859Z" fill="#040135"/>
<path d="M107.637 57.3262H78.3435V39.3295H109.407V23.2816H60.3748V109.859H111.073V93.7937H78.3435V73.2511H107.637V57.3262Z" fill="#040135"/>
<path d="M262.764 37.5385C264.307 37.1523 267.024 36.766 270.916 36.766C286.518 36.766 296.194 46.2648 296.194 64.2615C296.194 84.9446 285.448 94.7067 269.022 94.5838C266.901 94.5838 264.289 94.5838 262.764 94.1975V37.5385ZM244.813 108.577C249.178 109.227 255.927 109.859 265.253 109.859C280.855 109.859 293.723 106.26 302.12 98.6923C309.675 91.6341 315.233 80.1864 315.233 63.6294C315.233 48.3366 310.026 37.679 301.769 31.007C294.214 24.8443 284.274 21.7541 269.04 21.7541C260.064 21.7541 251.439 22.5266 244.813 23.6854V108.577V108.577Z" fill="#040135"/>
<path d="M315.425 120.482H0V123.027H315.425V120.482Z" fill="#FF0019"/>
<path d="M15.6425 128.663V132.038H11.4246V145.733H7.38035V132.038H3.13799V128.663H15.6425Z" fill="#040135"/>
<path d="M25.8451 128.663V134.809C26.5288 133.491 27.6648 132.831 29.2531 132.83C30.0165 132.808 30.7708 133.001 31.4303 133.387C31.9962 133.715 32.4422 134.217 32.7031 134.817C32.9485 135.403 33.0712 136.257 33.0712 137.379V145.717H29.353V138.603C29.3709 138.016 29.3375 137.428 29.2531 136.847C29.1917 136.54 29.0324 136.261 28.799 136.052C28.5539 135.836 28.2361 135.723 27.9102 135.734C27.4014 135.75 26.914 135.943 26.5306 136.278C26.0725 136.642 25.844 137.416 25.8451 138.599V145.721H22.2391V128.663H25.8451Z" fill="#040135"/>
<path d="M52.523 140.037H44.4099C44.4099 140.262 44.3976 140.457 44.3976 140.624C44.3976 141.525 44.6366 142.205 45.1146 142.662C45.3411 142.885 45.6095 143.06 45.9041 143.178C46.1987 143.296 46.5137 143.354 46.8309 143.349C48.072 143.349 48.8171 142.686 49.066 141.361L52.4353 141.612C51.5004 144.528 49.5907 145.986 46.7064 145.988C45.4512 145.988 44.3842 145.735 43.5053 145.231C42.6 144.7 41.8507 143.938 41.3333 143.024C40.7641 142.058 40.4796 140.9 40.4796 139.549C40.4796 137.541 41.0516 135.92 42.1958 134.688C43.34 133.455 44.8102 132.838 46.6065 132.837C47.3824 132.826 48.1526 132.972 48.8703 133.267C49.5881 133.563 50.2385 134.001 50.7822 134.556C51.9427 135.703 52.523 137.53 52.523 140.037ZM44.3976 137.874H48.8784C48.7615 136.141 48.0504 135.274 46.7449 135.274C45.346 135.274 44.5636 136.141 44.3976 137.874V137.874Z" fill="#040135"/>
<path d="M84.8211 136.6V145.73H82.9997C82.8607 145.061 82.6708 144.403 82.4317 143.763C81.2162 145.247 79.6677 145.989 77.7861 145.989C75.5656 145.989 73.8365 145.194 72.5988 143.602C71.3612 142.01 70.7429 139.951 70.7441 137.425C70.7441 134.708 71.4033 132.524 72.7215 130.874C74.0398 129.224 75.8309 128.399 78.0946 128.4C79.9914 128.4 81.5224 128.933 82.6876 130C83.8528 131.066 84.564 132.487 84.8211 134.263L81.0275 134.761C80.7213 132.695 79.7437 131.662 78.0946 131.662C77.0124 131.662 76.1943 132.152 75.6404 133.13C75.0864 134.109 74.81 135.507 74.8112 137.325C74.8112 139.08 75.1104 140.418 75.7087 141.337C75.9737 141.775 76.3505 142.134 76.8004 142.378C77.2503 142.622 77.757 142.741 78.2682 142.724C78.9704 142.728 79.6507 142.479 80.1843 142.021C80.7452 141.553 81.0257 140.807 81.0257 139.783H77.8212V136.6H84.8211Z" fill="#040135"/>
<path d="M92.8535 145.724V128.663H96.5717V145.726L92.8535 145.724Z" fill="#040135"/>
<path d="M109.916 132.837C111.836 132.837 113.334 133.466 114.409 134.724C115.484 135.983 116.023 137.558 116.025 139.449C116.025 141.316 115.466 142.872 114.348 144.118C113.229 145.363 111.744 145.987 109.891 145.988C108.095 145.988 106.659 145.371 105.582 144.137C104.506 142.903 103.968 141.323 103.968 139.397C103.968 138.053 104.211 136.913 104.697 135.976C105.163 135.063 105.851 134.283 106.699 133.708C107.545 133.128 108.617 132.838 109.916 132.837ZM110.016 135.274C109.702 135.257 109.388 135.324 109.108 135.468C108.828 135.612 108.592 135.828 108.422 136.094C108.072 136.639 107.893 137.724 107.888 139.349C107.888 140.842 108.058 141.913 108.398 142.562C108.538 142.864 108.763 143.117 109.047 143.29C109.33 143.464 109.658 143.549 109.99 143.537C110.294 143.54 110.595 143.465 110.863 143.32C111.131 143.174 111.357 142.963 111.522 142.706C111.911 142.151 112.105 141.095 112.105 139.537C112.105 137.88 111.934 136.755 111.59 136.162C111.437 135.881 111.208 135.649 110.929 135.491C110.651 135.334 110.334 135.259 110.014 135.274H110.016Z" fill="#040135"/>
<path d="M127.148 128.663V134.689C127.814 133.456 128.855 132.839 130.269 132.839C130.942 132.819 131.61 132.969 132.21 133.276C132.81 133.583 133.323 134.036 133.701 134.594C134.541 135.765 134.962 137.372 134.962 139.414C134.962 141.381 134.529 142.968 133.664 144.176C132.8 145.384 131.553 145.988 129.923 145.989C129.075 145.989 128.385 145.843 127.853 145.551C127.321 145.258 126.785 144.673 126.244 143.795C126.01 144.037 125.734 144.681 125.415 145.726H123.43V128.663H127.148ZM127.148 140.726C127.148 141.608 127.334 142.275 127.704 142.725C127.858 142.934 128.058 143.103 128.289 143.22C128.52 143.338 128.774 143.4 129.033 143.401C129.335 143.402 129.632 143.328 129.898 143.185C130.164 143.041 130.39 142.834 130.556 142.582C130.956 142.037 131.156 140.977 131.156 139.402C131.156 137.61 130.95 136.484 130.537 136.025C130.367 135.816 130.153 135.646 129.911 135.527C129.669 135.409 129.404 135.345 129.135 135.339C128.847 135.333 128.564 135.401 128.31 135.537C128.057 135.672 127.843 135.871 127.688 136.113C127.329 136.632 127.15 137.365 127.15 138.313L127.148 140.726Z" fill="#040135"/>
<path d="M153.402 145.724H149.794C149.664 145.074 149.605 144.412 149.619 143.749C148.987 144.65 148.357 145.249 147.731 145.543C147.06 145.848 146.33 146 145.594 145.988C144.414 145.988 143.46 145.666 142.733 145.024C142.006 144.381 141.644 143.519 141.646 142.438C141.641 141.663 141.862 140.903 142.281 140.252C142.705 139.584 143.386 139.061 144.325 138.682C145.263 138.303 146.974 138.022 149.458 137.839V137.114C149.458 135.888 148.848 135.276 147.629 135.276C146.327 135.276 145.601 135.888 145.452 137.114L142.019 136.789C142.244 135.355 142.922 134.339 144.053 133.739C145.24 133.126 146.561 132.816 147.897 132.839C148.714 132.834 149.528 132.935 150.318 133.139C150.975 133.287 151.584 133.596 152.091 134.04C152.479 134.384 152.774 134.82 152.951 135.307C153.102 135.753 153.178 136.53 153.178 137.639V143.363C153.178 144.463 153.252 145.25 153.402 145.724ZM149.458 139.674C146.862 139.931 145.564 140.719 145.564 142.037C145.556 142.456 145.702 142.863 145.974 143.18C146.12 143.343 146.302 143.471 146.504 143.555C146.706 143.638 146.925 143.674 147.144 143.661C147.463 143.663 147.778 143.59 148.065 143.448C148.351 143.306 148.6 143.099 148.791 142.843C149.245 142.27 149.481 141.555 149.458 140.824V139.674Z" fill="#040135"/>
<path d="M161.308 145.724V128.663H165.026V145.726L161.308 145.724Z" fill="#040135"/>
<path d="M198.511 135.012L194.33 135.274C194.273 132.867 193.338 131.664 191.525 131.662C189.44 131.662 188.399 133.516 188.4 137.225C188.4 139.367 188.683 140.819 189.25 141.581C189.817 142.343 190.609 142.724 191.625 142.724C193.275 142.724 194.284 141.649 194.651 139.5L198.52 139.737C198.271 141.78 197.511 143.332 196.241 144.393C194.971 145.455 193.417 145.987 191.58 145.988C189.325 145.988 187.493 145.208 186.082 143.649C184.672 142.09 183.966 139.936 183.966 137.188C183.966 134.613 184.649 132.506 186.014 130.867C187.379 129.228 189.242 128.409 191.604 128.409C195.697 128.403 197.999 130.604 198.511 135.012Z" fill="#040135"/>
<path d="M210.918 132.837C212.837 132.837 214.335 133.466 215.412 134.724C216.49 135.983 217.028 137.558 217.027 139.449C217.027 141.316 216.468 142.872 215.349 144.118C214.231 145.363 212.745 145.987 210.891 145.988C209.095 145.988 207.659 145.371 206.582 144.137C205.506 142.903 204.968 141.323 204.968 139.397C204.968 138.053 205.211 136.913 205.697 135.976C206.163 135.063 206.851 134.283 207.699 133.708C208.542 133.128 209.614 132.838 210.918 132.837ZM211.017 135.274C210.703 135.257 210.39 135.324 210.11 135.468C209.83 135.612 209.593 135.828 209.424 136.094C209.073 136.639 208.895 137.724 208.889 139.349C208.889 140.842 209.059 141.913 209.399 142.562C209.539 142.864 209.765 143.117 210.048 143.29C210.332 143.464 210.66 143.549 210.991 143.537C211.296 143.54 211.596 143.465 211.864 143.32C212.132 143.174 212.359 142.963 212.523 142.706C212.913 142.151 213.107 141.095 213.107 139.537C213.107 137.88 212.935 136.755 212.592 136.162C212.439 135.881 212.21 135.649 211.932 135.492C211.654 135.335 211.337 135.259 211.017 135.274V135.274Z" fill="#040135"/>
<path d="M235.392 145.724H231.672V138.636C231.689 138.049 231.656 137.462 231.572 136.88C231.506 136.563 231.334 136.278 231.085 136.073C230.811 135.848 230.465 135.73 230.112 135.743C228.806 135.743 228.153 136.709 228.152 138.642V145.73H224.434V133.106H227.896V135.242C228.468 134.225 229.034 133.571 229.593 133.279C230.151 132.988 230.772 132.838 231.402 132.842C232.601 132.842 233.566 133.165 234.298 133.811C235.03 134.457 235.396 135.726 235.397 137.618L235.392 145.724Z" fill="#040135"/>
<path d="M254.481 145.724H250.761V138.636C250.778 138.049 250.745 137.462 250.661 136.88C250.594 136.564 250.423 136.279 250.173 136.073C249.9 135.848 249.554 135.73 249.201 135.743C247.895 135.743 247.242 136.709 247.241 138.642V145.73H243.522V133.106H246.979V135.242C247.553 134.225 248.119 133.571 248.676 133.279C249.235 132.988 249.856 132.838 250.486 132.842C251.685 132.842 252.65 133.165 253.382 133.811C254.113 134.457 254.48 135.726 254.481 137.618V145.724Z" fill="#040135"/>
<path d="M273.931 140.037H265.818C265.818 140.262 265.805 140.457 265.805 140.624C265.805 141.525 266.045 142.205 266.524 142.662C266.75 142.885 267.018 143.06 267.313 143.178C267.607 143.296 267.922 143.354 268.239 143.349C269.48 143.349 270.225 142.686 270.474 141.361L273.843 141.612C272.908 144.528 270.999 145.986 268.114 145.988C266.859 145.988 265.792 145.735 264.913 145.231C264.008 144.699 263.259 143.938 262.741 143.024C262.172 142.058 261.887 140.9 261.887 139.549C261.887 137.541 262.459 135.92 263.604 134.688C264.748 133.455 266.218 132.838 268.014 132.837C268.79 132.826 269.56 132.972 270.278 133.267C270.996 133.563 271.646 134.001 272.19 134.556C273.351 135.703 273.931 137.53 273.931 140.037ZM265.805 137.874H270.286C270.169 136.141 269.458 135.274 268.153 135.274C266.754 135.274 265.971 136.141 265.805 137.874V137.874Z" fill="#040135"/>
<path d="M292.42 140.987C292.279 142.477 291.69 143.684 290.655 144.606C289.619 145.528 288.282 145.989 286.642 145.988C284.861 145.988 283.411 145.398 282.293 144.218C281.174 143.038 280.615 141.458 280.613 139.477C280.613 137.504 281.185 135.902 282.33 134.672C283.474 133.441 285.002 132.827 286.916 132.828C288.455 132.828 289.73 133.291 290.743 134.215C291.735 135.108 292.338 136.356 292.42 137.69L288.951 137.89C288.834 136.374 288.177 135.613 286.979 135.608C285.506 135.608 284.77 136.816 284.77 139.231C284.77 140.84 284.976 141.86 285.387 142.294C285.577 142.502 285.81 142.668 286.069 142.781C286.329 142.893 286.609 142.949 286.891 142.945C288.04 142.945 288.727 142.216 288.951 140.757L292.42 140.987Z" fill="#040135"/>
<path d="M303.671 135.999V141.337C303.671 142.004 303.771 142.45 303.969 142.675C304.168 142.899 304.635 143.012 305.372 143.012C305.712 143.012 306.104 142.996 306.553 142.963V145.724C305.783 145.873 305.002 145.965 304.218 146C302.67 146 301.572 145.702 300.924 145.106C300.277 144.511 299.951 143.433 299.946 141.874V135.999H297.947V133.1H300.158L300.456 129.375L303.664 129.125V133.1H306.373V135.999H303.671Z" fill="#040135"/>
</svg>
