<?xml version="1.0" encoding="utf-8"?>
<!-- Generator: Adobe Illustrator 24.3.0, SVG Export Plug-In . SVG Version: 6.00 Build 0)  -->
<svg version="1.1" id="Layer_1" xmlns="http://www.w3.org/2000/svg" xmlns:xlink="http://www.w3.org/1999/xlink" x="0px" y="0px"
	 viewBox="0 0 446.8 409.6" style="enable-background:new 0 0 446.8 409.6;" xml:space="preserve">
<style type="text/css">
	.st0{fill:#F5F5F5;}
	.st1{fill:#E0E0E0;}
	.st2{fill:#2970FA;}
	.st3{opacity:0.3;}
	.st4{fill:#FFFFFF;}
	.st5{opacity:0.15;}
	.st6{fill:#37474F;}
	.st7{fill:#455A64;}
	.st8{fill:#263238;}
	.st9{fill:#FAFAFA;}
	.st10{opacity:0.5;fill:#2970FA;enable-background:new    ;}
	.st11{opacity:0.4;fill:#2970FA;enable-background:new    ;}
	.st12{opacity:0.3;fill:#2970FA;enable-background:new    ;}
	.st13{opacity:0.2;fill:#2970FA;enable-background:new    ;}
	.st14{opacity:0.1;enable-background:new    ;}
	.st15{fill:#27DEBF;}
	.st16{fill:#EBEBEB;}
	.st17{opacity:0.2;enable-background:new    ;}
	.st18{opacity:0.1;fill:#2970FA;enable-background:new    ;}
	.st19{opacity:0.7;}
	.st20{opacity:0.8;fill:#FFFFFF;enable-background:new    ;}
	.st21{opacity:0.1;fill:#27DEBF;enable-background:new    ;}
	.st22{opacity:5.000000e-02;enable-background:new    ;}
	.st23{opacity:0.2;fill:#27DEBF;enable-background:new    ;}
	.st24{opacity:0.5;}
	.st25{opacity:0.6;fill:#FFFFFF;enable-background:new    ;}
	.st26{opacity:0.4;fill:#27DEBF;enable-background:new    ;}
	.st27{opacity:0.35;fill:#2970FA;enable-background:new    ;}
	.st28{opacity:5.000000e-02;fill:#2970FA;enable-background:new    ;}
	.st29{fill:#F0F0F0;}
	.st30{opacity:0.4;fill:#FFFFFF;enable-background:new    ;}
	.st31{opacity:0.15;enable-background:new    ;}
	.st32{opacity:0.25;}
	.st33{fill:#E1E1E1;}
</style>
<g id="Floor">
	<ellipse id="Floor-2" class="st0" cx="223.4" cy="278.4" rx="223.4" ry="131.2"/>
</g>
<g id="Shadows">
	<path id="Shadow" class="st1" d="M67.4,278.5c12.9,7.5,12.9,19.6,0,27s-33.9,7.5-46.8,0s-12.9-19.6,0-27S54.4,271,67.4,278.5z"/>
	<path id="Shadow-2" class="st1" d="M95.7,295.6L213,363.4c2.7,1.4,5.9,1.4,8.7,0l198.5-114.6c2.4-1.4,2.4-3.6,0-5L302.9,176
		c-2.7-1.4-5.9-1.4-8.7,0L95.7,290.6C93.3,292,93.3,294.3,95.7,295.6z"/>
</g>
<g id="Plants">
	<g id="Plants-2">
		<path class="st2" d="M391.7,224.5l-8.2-4.7c0,0-4.9-20.2-2.9-38.4c2.7-25.6,16.5-36.7,26-33c6.3,2.5,8.2,9.6-2.3,24.9
			C397.9,182.2,390.3,200.9,391.7,224.5z"/>
		<g class="st3">
			<path d="M391.7,224.5l-8.2-4.7c0,0-4.9-20.2-2.9-38.4c2.7-25.6,16.5-36.7,26-33c6.3,2.5,8.2,9.6-2.3,24.9
				C397.9,182.2,390.3,200.9,391.7,224.5z"/>
		</g>
		<path class="st4" d="M388.3,214.6h0.1c0.3-0.1,0.5-0.3,0.5-0.7c0,0,0,0,0,0c-4.5-23.6,3.8-50.1,14-61.1c0.2-0.2,0.2-0.6-0.1-0.8
			c-0.2-0.2-0.6-0.2-0.8,0c-10.4,11.2-18.8,38.2-14.2,62.1C387.8,214.4,388,214.6,388.3,214.6z"/>
		<path class="st2" d="M413.1,236.8c1.3,0.6,4.7-2.3,5.7-3c1.6-1.2,2.9-2.9,3.8-4.8c0.9-2.1,1.1-4.5,0.6-6.8c-0.3-1.2-0.6-2.4-1-3.5
			l-1.2-3.4c-0.5-1.1-0.7-2.3-0.7-3.5c0.2-2.4,2.2-4.2,4.1-5.7c2-1.7,4.1-3.9,4-6.8c-0.3-2.2-1.3-4.3-2.8-5.9
			c-1.5-1.7-3.2-3.1-4.5-4.9c-1-1.2-1.6-2.8-1.7-4.4c0.1-1,0.4-2,0.8-2.8c1.1-1.8,2-3.7,2.8-5.7c0.6-2,0.4-4.5-1.3-5.9
			c-1.4-1.1-3.3-1.2-5-1c-1.6,0.3-3.2,0.9-4.5,1.8c-4.4,2.8-6.7,8.3-11.5,10.5c-1.9,0.7-3.8,1.3-5.8,1.7c-1.9,0.6-3.9,1.7-4.6,3.5
			c-1.6,3.6,1.9,7.8,0.9,11.6c-0.9,3.4-4.1,4.8-5.8,7.9c-0.7,1.4-0.9,2.9-0.6,4.4c0.3,2.5,1,5,2.2,7.2c1.3,2.3,2.8,4.6,4.4,6.7
			C391.4,224.2,412.9,236.7,413.1,236.8z"/>
		<g class="st5">
			<path d="M413.1,236.8c1.3,0.6,4.7-2.3,5.7-3c1.6-1.2,2.9-2.9,3.8-4.8c0.9-2.1,1.1-4.5,0.6-6.8c-0.3-1.2-0.6-2.4-1-3.5l-1.2-3.4
				c-0.5-1.1-0.7-2.3-0.7-3.5c0.2-2.4,2.2-4.2,4.1-5.7c2-1.7,4.1-3.9,4-6.8c-0.3-2.2-1.3-4.3-2.8-5.9c-1.5-1.7-3.2-3.1-4.5-4.9
				c-1-1.2-1.6-2.8-1.7-4.4c0.1-1,0.4-2,0.8-2.8c1.1-1.8,2-3.7,2.8-5.7c0.6-2,0.4-4.5-1.3-5.9c-1.4-1.1-3.3-1.2-5-1
				c-1.6,0.3-3.2,0.9-4.5,1.8c-4.4,2.8-6.7,8.3-11.5,10.5c-1.9,0.7-3.8,1.3-5.8,1.7c-1.9,0.6-3.9,1.7-4.6,3.5
				c-1.6,3.6,1.9,7.8,0.9,11.6c-0.9,3.4-4.1,4.8-5.8,7.9c-0.7,1.4-0.9,2.9-0.6,4.4c0.3,2.5,1,5,2.2,7.2c1.3,2.3,2.8,4.6,4.4,6.7
				C391.4,224.2,412.9,236.7,413.1,236.8z"/>
		</g>
		<path class="st4" d="M400.6,230.3L400.6,230.3c0.3,0,0.5-0.3,0.5-0.6c0,0,0,0,0,0c-2.1-22.4,7.3-47.8,14.6-55.4
			c0.2-0.2,0.3-0.6,0.1-0.8c-0.2-0.2-0.6-0.3-0.8-0.1c0,0-0.1,0.1-0.1,0.1c-7.5,7.8-17,33.5-14.9,56.2
			C400,230.1,400.3,230.3,400.6,230.3z"/>
		<path class="st4" d="M402.8,202.7h0.2c5.2-1.7,10.7-2.9,16.2-3.5c0.3,0,0.5-0.3,0.5-0.6c0-0.3-0.3-0.5-0.6-0.5c0,0,0,0,0,0
			c-5.6,0.6-11.1,1.7-16.5,3.5c-0.3,0.1-0.4,0.4-0.3,0.7C402.3,202.6,402.6,202.7,402.8,202.7L402.8,202.7z"/>
	</g>
</g>
<g id="Device">
	<g id="Laptop">
		<path class="st6" d="M99.7,283.2c0.2,3.4,2.1,6.4,4.9,8.2l107.7,62.2c3.1,1.6,6.8,1.6,9.9,0l189.6-109.5c4.5-2.4,6.3-8,3.9-12.5
			c-0.9-1.7-2.2-3-3.9-3.9l-107.7-62.2c-3.1-1.6-6.8-1.6-9.9,0L104.7,275C101.8,276.8,100,279.8,99.7,283.2z"/>
		<path class="st7" d="M104.7,280.7l107.7,62.2c3.1,1.6,6.8,1.6,9.9,0l189.6-109.5c2.7-1.6,2.7-4.1,0-5.7l-107.7-62.2
			c-3.1-1.6-6.8-1.6-9.9,0L104.7,275C102,276.6,102,279.1,104.7,280.7z"/>
		<path class="st8" d="M217.3,344.1v10.7c-1.7,0-3.5-0.4-5-1.2l-107.6-62.2c-4.5-2.4-6.3-8-3.9-12.5c0.8-1.5,2-2.7,3.4-3.6
			c-2.2,1.6-2,3.9,0.5,5.4l107.7,62.2C213.9,343.7,215.6,344.1,217.3,344.1z"/>
		<path class="st6" d="M95.1,275.2c-2.6-1.5-2.4-4-2.4-7.1V119.3c0.2-3.5,2.1-6.7,5-8.6L287.3,1.2c3-1.6,6.5-1.6,9.6-0.2
			c2.6,1.5,2.4,4,2.4,7.1v148.7c-0.2,3.5-2,6.7-5,8.6L104.7,275C101.7,276.6,98.1,276.6,95.1,275.2z"/>
		<path class="st7" d="M299.3,8.2c0-3.2-2.2-4.4-5-2.8L104.7,114.8c-1.5,0.9-2.7,2.2-3.5,3.7l-7.1-4.1l0,0c0.8-1.5,2-2.8,3.5-3.7
			L287.2,1.2c3-1.6,6.5-1.7,9.6-0.2C299.4,2.6,299.3,5,299.3,8.2z"/>
		<path class="st8" d="M104.1,275.3c-2.9,1.3-6.2,1.3-9-0.1c-2.6-1.5-2.4-4-2.4-7.1V119.3c0.1-1.7,0.6-3.4,1.4-4.9l7.1,4.1l0,0
			c-0.9,1.5-1.4,3.1-1.4,4.9v148.8C99.7,275.1,101.7,276.4,104.1,275.3z"/>
		<path class="st9" d="M107.4,120.5L290.2,15c1.6-1,3-0.2,3,1.7v129.9c-0.1,2.1-1.2,4-3,5.1L107.4,257.2c-1.6,0.9-3,0.2-3-1.7V125.7
			C104.5,123.6,105.6,121.7,107.4,120.5z"/>
		<path class="st8" d="M118.4,275.3l176-101.6c1.6-0.8,3.4-0.8,4.9,0l2.9,1.6c1.4,0.8,1.4,2.1,0,2.9l-176,101.6
			c-1.6,0.8-3.4,0.8-5,0l-2.9-1.6C117,277.4,117,276.1,118.4,275.3z"/>
		<path class="st8" d="M132.2,283.5l176-101.6c1.4-0.8,3.1-0.9,4.5-0.2l45.8,26.5c1.1,0.6,0.9,1.8-0.4,2.6L182.3,312.2
			c-1.4,0.8-3.1,0.9-4.5,0.3l-46-26.3C130.6,285.4,130.8,284.3,132.2,283.5z"/>
		<path class="st7" d="M284.7,224.6l5.5-3.2c0.2-0.1,0.2-0.3,0-0.5l-5.3-3c-0.3-0.1-0.5-0.1-0.8,0l-5.5,3.2c-0.2,0.1-0.3,0.3,0,0.5
			l5.3,3C284.2,224.7,284.5,224.7,284.7,224.6z M276.7,213.6l-5.5,3.2c-0.2,0.1-0.3,0.3,0,0.5l5.3,3c0.3,0.1,0.5,0.1,0.8,0l5.5-3.2
			c0.2-0.1,0.3-0.3,0-0.5l-5.3-3C277.2,213.4,276.9,213.4,276.7,213.6L276.7,213.6z M258.9,223.9l-9.3,5.4c-0.2,0.1-0.3,0.3,0,0.5
			l5.3,3c0.3,0.1,0.5,0.1,0.8,0l9.3-5.4c0.2-0.1,0.2-0.3,0-0.5l-5.3-3C259.4,223.8,259.1,223.7,258.9,223.9L258.9,223.9z
			 M268.6,218.2l-5.5,3.2c-0.2,0.1-0.2,0.3,0,0.5l5.3,3c0.3,0.1,0.5,0.1,0.8,0l5.5-3.2c0.2-0.1,0.2-0.3,0-0.5l-5.3-3
			C269.1,218.1,268.9,218.1,268.6,218.2L268.6,218.2z M247,230.7l-5.5,3.2c-0.2,0.1-0.2,0.3,0,0.5l5.3,3c0.3,0.1,0.5,0.1,0.8,0
			l5.5-3.2c0.2-0.1,0.2-0.3,0-0.5l-5.3-3C247.6,230.6,247.2,230.5,247,230.7L247,230.7z M239,235.4l-5.6,3.1c-0.2,0.1-0.3,0.3,0,0.5
			l5.3,3c0.3,0.1,0.5,0.1,0.8,0l5.5-3.2c0.2-0.1,0.3-0.3,0-0.5l-5.3-3C239.5,235.2,239.2,235.2,239,235.4L239,235.4z M259.6,247.8
			l5.5-3.2c0.2-0.1,0.2-0.3,0-0.5l-5.3-3c-0.3-0.1-0.5-0.1-0.8,0l-5.5,3.2c-0.2,0.1-0.3,0.3,0,0.5l5.3,3
			C259.1,247.9,259.4,247.9,259.6,247.8L259.6,247.8z M251.6,252.4l5.5-3.2c0.2-0.1,0.3-0.3,0-0.5l-5.3-3c-0.3-0.1-0.6-0.1-0.8,0
			l-5.5,3.2c-0.2,0.1-0.2,0.3,0,0.5l5.3,3C251,252.5,251.3,252.5,251.6,252.4L251.6,252.4z M243.5,257.1l5.5-3.2
			c0.2-0.1,0.2-0.3,0-0.5l-5.3-3c-0.3-0.1-0.5-0.1-0.8,0l-5.5,3.2c-0.2,0.1-0.3,0.3,0,0.5l5.3,3
			C242.9,257.2,243.2,257.2,243.5,257.1L243.5,257.1z M235.4,261.7l5.5-3.2c0.2-0.1,0.3-0.3,0-0.5l-5.3-3c-0.3-0.1-0.5-0.1-0.8,0
			l-5.4,3.2c-0.2,0.1-0.2,0.3,0,0.5l5.3,3C234.9,261.8,235.2,261.8,235.4,261.7z M276.6,229.2l5.5-3.2c0.2-0.1,0.3-0.3,0-0.5l-5.3-3
			c-0.3-0.1-0.5-0.1-0.8,0l-5.5,3.2c-0.2,0.1-0.2,0.3,0,0.5l5.3,3C276.1,229.3,276.4,229.3,276.6,229.2L276.6,229.2z M267.6,243.1
			l12.3-7.1c0.2-0.1,0.3-0.3,0-0.5l-12.8-7.4c-0.3-0.1-0.6-0.1-0.8,0l-6.4,3.7c-0.2,0.1-0.3,0.4,0,0.5l6.8,3.9
			c0.2,0.1,0.2,0.3,0,0.5l-5,2.9c-0.2,0.1-0.2,0.3,0,0.5l5.3,3C267.1,243.2,267.4,243.2,267.6,243.1L267.6,243.1z M230.8,240
			l-5.4,3.2c-0.2,0.1-0.2,0.3,0,0.5l5.3,3c0.3,0.1,0.5,0.1,0.8,0l5.5-3.2c0.2-0.1,0.2-0.3,0-0.5l-5.3-3
			C231.5,239.8,231.1,239.8,230.8,240L230.8,240z M222.8,244.6l-5.5,3.2c-0.2,0.1-0.3,0.3,0,0.5l5.3,3c0.3,0.1,0.5,0.1,0.8,0
			l5.5-3.2c0.2-0.1,0.3-0.3,0.1-0.5l-5.3-3C223.4,244.5,223.1,244.5,222.8,244.6z M178.2,294.2c0.3,0.1,0.5,0.1,0.8,0l5.5-3.2
			c0.2-0.1,0.2-0.3,0.1-0.5l-5.3-3c-0.3-0.1-0.5-0.1-0.8,0l-5.5,3.2c-0.2,0.1-0.2,0.4-0.1,0.5L178.2,294.2z M158.4,281.8l-5.5,3.2
			c-0.2,0.1-0.3,0.4-0.1,0.5l5.3,3c0.3,0.1,0.5,0.1,0.8,0l5.5-3.2c0.2-0.1,0.2-0.3,0-0.5l-5.3-3
			C158.9,281.7,158.6,281.7,158.4,281.8z M168.6,291.2c0.3,0.1,0.6,0.1,0.8,0l5.5-3.2c0.2-0.1,0.2-0.4,0-0.5l-5.3-3
			c-0.3-0.1-0.5-0.1-0.8,0l-5.5,3.1c-0.2,0.1-0.3,0.3-0.1,0.5L168.6,291.2z M190.8,296.2l5.5-3.2c0.2-0.1,0.2-0.3,0-0.5l-5.3-3
			c-0.3-0.1-0.5-0.1-0.8,0l-5.5,3.2c-0.2,0.1-0.2,0.3,0,0.5l5.3,3C190.3,296.3,190.6,296.3,190.8,296.2L190.8,296.2z M182,300.8
			c0.3,0.1,0.5,0.1,0.8,0l5.5-3.2c0.2-0.1,0.3-0.3,0-0.5l-5.3-3c-0.3-0.1-0.5-0.1-0.8,0l-5.5,3.2c-0.2,0.1-0.3,0.3-0.1,0.5
			L182,300.8z M166.4,277.2l-5.5,3.2c-0.2,0.1-0.2,0.4,0,0.5l5.3,3c0.3,0.1,0.5,0.1,0.8,0l5.5-3.2c0.2-0.1,0.3-0.3,0.1-0.5l-5.3-3
			C167,277,166.7,277,166.4,277.2z M206.7,253.9l-5.5,3.2c-0.2,0.1-0.3,0.3-0.1,0.5l5.3,3c0.3,0.1,0.5,0.1,0.8,0l5.5-3.2
			c0.2-0.1,0.2-0.3,0-0.5l-5.3-3C207.2,253.8,206.9,253.8,206.7,253.9L206.7,253.9z M174.4,272.5l-5.5,3.2c-0.2,0.1-0.3,0.4-0.1,0.5
			l5.3,3c0.3,0.1,0.6,0.1,0.8,0l5.5-3.2c0.2-0.1,0.2-0.3,0-0.5l-5.3-3C175,272.4,174.7,272.4,174.4,272.5L174.4,272.5z M214.7,249.3
			l-5.5,3.2c-0.2,0.1-0.2,0.3,0,0.5l5.3,3c0.3,0.1,0.5,0.1,0.8,0l5.5-3.2c0.2-0.1,0.2-0.3,0.1-0.5l-5.3-3
			C215.3,249.2,215,249.2,214.7,249.3L214.7,249.3z M198.6,258.6l-5.5,3.2c-0.2,0.1-0.2,0.3,0,0.5l5.3,3c0.3,0.1,0.5,0.1,0.8,0
			l5.5-3.2c0.2-0.1,0.3-0.3,0.1-0.5l-5.3-3C199.2,258.5,198.9,258.5,198.6,258.6z M190.6,263.2l-5.5,3.2c-0.2,0.1-0.3,0.3-0.1,0.5
			l5.3,3c0.3,0.1,0.5,0.1,0.8,0l5.5-3.2c0.2-0.1,0.2-0.3,0-0.5l-5.2-3.1C191.1,263.1,190.8,263.1,190.6,263.2L190.6,263.2z
			 M182.6,267.9l-5.5,3.2c-0.2,0.1-0.2,0.4,0,0.5l5.3,3c0.3,0.1,0.5,0.1,0.8,0l5.5-3.2c0.2-0.1,0.3-0.3,0.1-0.5l-5.3-3
			C183.1,267.7,182.8,267.7,182.6,267.9L182.6,267.9z M219.4,271l5.5-3.2c0.2-0.1,0.3-0.3,0-0.5l-5.3-3c-0.3-0.1-0.5-0.1-0.8,0
			l-5.5,3.2c-0.2,0.1-0.2,0.3,0,0.5l5.3,3C218.8,271.2,219.1,271.1,219.4,271L219.4,271z M294.5,203.3l-5.5,3.2
			c-0.2,0.1-0.2,0.3,0,0.5l5.3,3c0.3,0.1,0.5,0.1,0.8,0l5.5-3.2c0.2-0.1,0.2-0.3,0-0.5l-5.3-3C295,203.1,294.7,203.1,294.5,203.3
			L294.5,203.3z M284.8,208.9l-5.5,3.2c-0.2,0.1-0.2,0.3,0,0.5l5.3,3c0.3,0.1,0.5,0.1,0.8,0l5.5-3.2c0.2-0.1,0.2-0.3,0-0.5l-5.3-3
			C285.3,208.8,285,208.8,284.8,208.9L284.8,208.9z M302.5,198.6l-5.5,3.2c-0.2,0.1-0.3,0.3,0,0.5l5.3,3c0.3,0.1,0.5,0.1,0.8,0
			l5.5-3.2c0.2-0.1,0.3-0.3,0-0.5l-5.3-3C303.1,198.5,302.8,198.5,302.5,198.6z M258,240l5.5-3.2c0.2-0.1,0.2-0.3,0-0.5l-5.3-3
			c-0.3-0.1-0.5-0.1-0.8,0l-5.5,3.2c-0.2,0.1-0.2,0.3,0,0.5l5.3,3C257.5,240.1,257.8,240.1,258,240z M311.4,194
			c-0.3-0.1-0.5-0.1-0.8,0l-5.5,3.2c-0.2,0.1-0.2,0.3,0,0.5l5.3,3c0.3,0.1,0.5,0.1,0.8,0l5.5-3.2c0.2-0.1,0.2-0.3,0-0.5L311.4,194z
			 M227.4,266.4l5.5-3.2c0.2-0.1,0.2-0.3,0-0.5l-5.3-3c-0.3-0.1-0.5-0.1-0.8,0l-5.4,3.2c-0.2,0.1-0.3,0.3,0,0.5l5.3,3
			C226.9,266.5,227.2,266.5,227.4,266.4L227.4,266.4z M326.1,209.4l5.5-3.2c0.2-0.1,0.3-0.3,0-0.5l-5.3-3.2c-0.3-0.1-0.5-0.1-0.8,0
			l-5.5,3.2c-0.2,0.1-0.3,0.4,0,0.5l5.3,3C325.6,209.4,325.9,209.4,326.1,209.4L326.1,209.4z M310.5,209.7l5.5-3.2
			c0.2-0.1,0.2-0.3,0-0.5l-5.3-3c-0.3-0.1-0.5-0.1-0.8,0l-5.5,3.2c-0.2,0.1-0.3,0.3,0,0.5l5.3,3C310,209.8,310.3,209.8,310.5,209.7
			L310.5,209.7z M318.9,198.4c-0.3-0.1-0.5-0.1-0.8,0l-5.5,3.2c-0.2,0.1-0.2,0.3,0,0.5l5.3,3c0.3,0.1,0.5,0.1,0.8,0l5.5-3.2
			c0.2-0.1,0.3-0.3,0-0.5L318.9,198.4z M320.6,197.4l12.8,7.4c0.3,0.1,0.6,0.1,0.8,0l5.5-3.2c0.2-0.1,0.2-0.3,0-0.5l-12.8-7.4
			c-0.3-0.1-0.5-0.1-0.8,0l-5.5,3.2C320.4,197,320.4,197.2,320.6,197.4L320.6,197.4z M302,207.6l-5.5,3.2c-0.2,0.1-0.2,0.3,0,0.5
			l5.3,3c0.3,0.1,0.5,0.1,0.8,0l5.5-3.2c0.2-0.1,0.3-0.3,0-0.5l-5.3-3C302.6,207.5,302.3,207.5,302,207.6z M241.4,242.6l-5.5,3.2
			c-0.2,0.1-0.2,0.3,0,0.5l5.3,3c0.3,0.1,0.5,0.1,0.8,0l5.4-3.1c0.2-0.1,0.2-0.3,0-0.5l-5.3-3C241.9,242.5,241.6,242.5,241.4,242.6z
			 M317.3,214c0.3,0.1,0.5,0.1,0.8,0l5.5-3.2c0.2-0.1,0.2-0.3,0-0.5l-5.2-3.1c-0.3-0.1-0.5-0.1-0.8,0l-5.5,3.2
			c-0.2,0.1-0.2,0.4,0,0.5L317.3,214z M249.5,238l-5.5,3.2c-0.2,0.1-0.3,0.3,0,0.5l5.3,3c0.3,0.1,0.5,0.1,0.8,0l5.5-3.2
			c0.2-0.1,0.3-0.3,0-0.5l-5.3-3C250,237.8,249.7,237.8,249.5,238L249.5,238z M186.3,289.6c0.3,0.1,0.5,0.1,0.8,0l5.5-3.2
			c0.2-0.1,0.3-0.3,0-0.5l-5.2-3c-0.3-0.1-0.5-0.1-0.8,0l-5.5,3.2c-0.2,0.1-0.3,0.4-0.1,0.5L186.3,289.6z M176.9,279.8l-5.5,3.2
			c-0.2,0.1-0.2,0.3,0,0.5l5.3,3c0.3,0.1,0.5,0.1,0.8,0l5.5-3.2c0.2-0.1,0.3-0.4,0.1-0.5l-5.3-3
			C177.5,279.7,177.2,279.7,176.9,279.8L176.9,279.8z M195.2,284.9l5.5-3.2c0.2-0.1,0.2-0.3,0-0.5l-5.3-3c-0.3-0.1-0.5-0.1-0.8,0
			l-5.5,3.2c-0.2,0.1-0.2,0.4,0,0.5l5.3,3C194.6,285,194.9,285.1,195.2,284.9L195.2,284.9z M203.2,280.3l5.5-3.2
			c0.2-0.1,0.3-0.3,0.1-0.5l-5.3-3c-0.3-0.1-0.5-0.1-0.8,0l-5.5,3.2c-0.2,0.1-0.3,0.4,0,0.5l5.3,3
			C202.7,280.4,203,280.4,203.2,280.3L203.2,280.3z M211.3,275.6l5.5-3.2c0.2-0.1,0.2-0.3,0-0.5l-5.3-3c-0.3-0.1-0.5-0.1-0.8,0
			l-5.5,3.2c-0.2,0.1-0.3,0.4-0.1,0.5l5.3,3C210.7,275.7,211,275.8,211.3,275.6L211.3,275.6z M185,275.1l-5.5,3.2
			c-0.2,0.1-0.3,0.3-0.1,0.5l5.3,3c0.3,0.1,0.6,0.1,0.8,0l5.5-3.2c0.2-0.1,0.2-0.4,0-0.5l-5.3-3C185.5,275,185.2,275,185,275.1
			L185,275.1z M193,270.5l-5.5,3.2c-0.2,0.1-0.2,0.3,0,0.5l5.3,3c0.3,0.1,0.5,0.1,0.8,0l5.5-3.2c0.2-0.1,0.3-0.3,0.1-0.5l-5.3-3
			C193.6,270.3,193.3,270.4,193,270.5L193,270.5z M225.3,251.9l-5.5,3.2c-0.2,0.1-0.2,0.3,0,0.5l5.3,3c0.3,0.1,0.5,0.1,0.8,0
			l5.5-3.2c0.2-0.1,0.2-0.3,0-0.5l-5.3-3C225.8,251.7,225.5,251.8,225.3,251.9L225.3,251.9z M217.2,256.6l-5.5,3.2
			c-0.2,0.1-0.3,0.3-0.1,0.5l5.3,3c0.3,0.1,0.5,0.1,0.8,0l5.5-3.2c0.2-0.1,0.3-0.3,0-0.5l-5.3-3
			C217.7,256.5,217.4,256.5,217.2,256.6z M233.3,247.3l-5.5,3.2c-0.2,0.1-0.3,0.3,0,0.5l5.3,3c0.3,0.1,0.5,0.1,0.8,0l5.5-3.2
			c0.2-0.1,0.3-0.3,0-0.5l-5.3-3C233.9,247.1,233.6,247.1,233.3,247.3L233.3,247.3z M201.1,265.9l-5.5,3.2c-0.2,0.1-0.3,0.3-0.1,0.5
			l5.3,3c0.3,0.1,0.5,0.1,0.8,0l5.5-3.2c0.2-0.1,0.2-0.3,0-0.5l-5.3-3C201.6,265.7,201.3,265.8,201.1,265.9z M209.1,261.2l-5.5,3.2
			c-0.2,0.1-0.2,0.3,0,0.5l5.3,3c0.3,0.1,0.5,0.1,0.8,0l5.5-3.2c0.2-0.1,0.3-0.3,0.1-0.5l-5.3-3
			C209.7,261.1,209.4,261.1,209.1,261.2z M198.9,291.5l5.5-3.2c0.2-0.1,0.3-0.3,0.1-0.5l-5.3-3c-0.3-0.1-0.5-0.1-0.8,0l-5.5,3.2
			c-0.2,0.1-0.3,0.4,0,0.5l5.3,3C198.4,291.6,198.6,291.6,198.9,291.5z M156.4,289.5l-5.3-3c-0.3-0.1-0.5-0.1-0.8,0l-5.5,3.2
			c-0.2,0.1-0.3,0.4,0,0.5l5.3,3c0.3,0.1,0.5,0.1,0.8,0l5.5-3.2C156.6,289.8,156.6,289.6,156.4,289.5z M166.9,292.1l-5.3-3
			c-0.3-0.1-0.5-0.1-0.8,0l-8.4,4.9c-0.2,0.1-0.3,0.4,0,0.5l5.3,3c0.3,0.1,0.5,0.1,0.8,0l8.5-4.9
			C167.1,292.5,167.1,292.2,166.9,292.1z M148.5,283.5l-5.3-3c-0.3-0.1-0.5-0.1-0.8,0l-6.8,3.9c-0.2,0.1-0.2,0.3,0,0.5l5.3,3
			c0.3,0.1,0.5,0.1,0.8,0l6.8-3.9C148.7,283.8,148.7,283.6,148.5,283.5z M153.7,280.5c0.3,0.1,0.5,0.1,0.8,0l5.5-3.2
			c0.2-0.1,0.3-0.4,0.1-0.5l-5.3-3c-0.3-0.1-0.5-0.1-0.8,0l-5.5,3.2c-0.2,0.1-0.3,0.3-0.1,0.5L153.7,280.5z M176.5,295.3l-5.3-3
			c-0.3-0.1-0.5-0.1-0.8,0l-10.6,6.1c-0.2,0.1-0.3,0.3,0,0.5l5.3,3c0.3,0.1,0.6,0.1,0.8,0l10.6-6.1
			C176.7,295.6,176.8,295.4,176.5,295.3L176.5,295.3z M180.3,301.8l-5.3-3c-0.3-0.1-0.5-0.1-0.8,0l-6.8,3.9c-0.2,0.1-0.2,0.3,0,0.5
			l5.3,3c0.3,0.1,0.5,0.1,0.8,0l6.8-3.9C180.4,302.1,180.5,301.9,180.3,301.8L180.3,301.8z M213.6,245.9c0.3,0.1,0.5,0.1,0.8,0
			l5.5-3.2c0.2-0.1,0.2-0.3,0.1-0.5l-5.3-3c-0.3-0.1-0.5-0.1-0.8,0l-5.5,3.1c-0.2,0.1-0.2,0.3-0.1,0.5L213.6,245.9z M197.5,255.2
			c0.3,0.1,0.5,0.1,0.8,0l5.5-3.2c0.2-0.1,0.3-0.3,0.1-0.5l-5.3-3c-0.3-0.1-0.5-0.1-0.8,0l-5.5,3.2c-0.2,0.1-0.2,0.4,0,0.5
			L197.5,255.2z M161.8,275.8c0.3,0.1,0.6,0.1,0.8,0l5.5-3.2c0.2-0.1,0.2-0.4,0-0.5l-5.3-3c-0.3-0.1-0.5-0.1-0.8,0l-5.5,3.2
			c-0.2,0.1-0.3,0.3,0,0.5L161.8,275.8z M205.6,250.6c0.3,0.1,0.5,0.1,0.8,0l5.5-3.2c0.2-0.1,0.3-0.3,0.1-0.5l-5.3-3
			c-0.3-0.1-0.5-0.1-0.8,0l-5.5,3.2c-0.2,0.1-0.3,0.4-0.1,0.5L205.6,250.6z M189.4,259.9c0.3,0.1,0.5,0.1,0.8,0l5.5-3.2
			c0.2-0.1,0.3-0.3,0-0.5l-5.3-3c-0.3-0.1-0.5-0.1-0.8,0l-5.5,3.2c-0.2,0.1-0.3,0.4-0.1,0.5L189.4,259.9z M184.2,302.2
			c-0.3-0.1-0.5-0.1-0.8,0l-8.5,4.9c-0.2,0.1-0.2,0.3,0,0.5l5.3,3c0.3,0.1,0.5,0.1,0.8,0l8.5-4.9c0.2-0.1,0.2-0.3,0-0.5L184.2,302.2
			z M177.9,266.6c0.3,0.1,0.5,0.1,0.8,0l5.5-3.2c0.2-0.1,0.2-0.3,0-0.5l-5.3-3c-0.3-0.1-0.5-0.1-0.8,0l-5.5,3.2
			c-0.2,0.1-0.3,0.3-0.1,0.5L177.9,266.6z M169.8,271.2c0.3,0.1,0.5,0.1,0.8,0l5.5-3.2c0.2-0.1,0.3-0.3,0.1-0.5l-5.3-3
			c-0.3-0.1-0.5-0.1-0.8,0l-5.5,3.2c-0.2,0.1-0.2,0.3,0,0.5L169.8,271.2z M333.4,216c-0.3-0.1-0.5-0.1-0.8,0l-13.6,7.8
			c-0.2,0.1-0.3,0.3,0,0.5l5.3,3c0.3,0.1,0.5,0.1,0.8,0l13.6-7.8c0.2-0.1,0.3-0.3,0-0.5L333.4,216z M315.6,226.3
			c-0.3-0.1-0.5-0.1-0.8,0l-5.5,3.2c-0.2,0.1-0.3,0.3,0,0.5l5.3,3c0.3,0.1,0.6,0.1,0.8,0l5.5-3.2c0.2-0.1,0.2-0.3,0-0.5L315.6,226.3
			z M206.9,286.9l5.5-3.2c0.2-0.1,0.2-0.3,0.1-0.5l-5.3-3c-0.3-0.1-0.5-0.1-0.8,0l-5.5,3.2c-0.2,0.1-0.2,0.4,0,0.5l5.3,3
			C206.4,287,206.7,287,206.9,286.9z M299.5,235.6c-0.3-0.1-0.5-0.1-0.8,0l-5.5,3.2c-0.2,0.1-0.3,0.3,0,0.5l5.3,3
			c0.3,0.1,0.5,0.1,0.8,0l5.5-3.2c0.2-0.1,0.2-0.3,0-0.5L299.5,235.6z M341.5,211.4c-0.3-0.1-0.5-0.1-0.8,0l-5.5,3.2
			c-0.2,0.1-0.3,0.3,0,0.5l5.3,3c0.3,0.1,0.5,0.1,0.8,0l5.5-3.2c0.2-0.1,0.2-0.3,0-0.5L341.5,211.4z M354.9,209.8l-12.8-7.4
			c-0.3-0.1-0.5-0.1-0.8,0l-5.5,3.2c-0.2,0.1-0.2,0.3,0,0.5l12.8,7.4c0.3,0.1,0.5,0.1,0.8,0l5.5-3.2C355,210,355,209.9,354.9,209.8
			L354.9,209.8z M269.4,252.9c-0.3-0.1-0.5-0.1-0.8,0l-6.8,3.9c-0.2,0.1-0.3,0.4,0,0.5l5.3,3c0.3,0.1,0.6,0.1,0.8,0l6.8-3.9
			c0.2-0.1,0.2-0.4,0-0.5L269.4,252.9z M289.8,241.2c-0.3-0.1-0.5-0.1-0.8,0l-8.5,4.9c-0.2,0.1-0.2,0.4,0,0.5l5.3,3
			c0.3,0.1,0.5,0.1,0.8,0l8.5-4.9c0.2-0.1,0.2-0.3,0-0.5L289.8,241.2z M250.8,263.7c-0.3-0.1-0.5-0.1-0.8,0l-45.4,26.2
			c-0.2,0.1-0.3,0.3-0.1,0.5l5.3,3c0.3,0.1,0.5,0.1,0.8,0l45.4-26.2c0.2-0.1,0.2-0.4,0-0.5L250.8,263.7z M202.9,291.4
			c-0.3-0.1-0.5-0.1-0.8,0l-6.8,3.9c-0.2,0.1-0.2,0.3,0,0.5l5.3,3c0.3,0.1,0.5,0.1,0.8,0l6.8-3.9c0.2-0.1,0.3-0.3,0.1-0.5
			L202.9,291.4z M260.1,258.4c-0.3-0.1-0.5-0.1-0.8,0l-6.8,3.9c-0.2,0.1-0.2,0.3,0,0.5l5.3,3c0.3,0.1,0.5,0.1,0.8,0l6.8-3.9
			c0.2-0.1,0.3-0.3,0-0.5L260.1,258.4z M193.5,296.8c-0.3-0.1-0.5-0.1-0.8,0l-6.8,3.9c-0.2,0.1-0.3,0.4,0,0.5l5.3,3
			c0.3,0.1,0.5,0.1,0.8,0l6.8-3.9c0.2-0.1,0.3-0.3,0-0.5L193.5,296.8z M278.8,247.6c-0.3-0.1-0.5-0.1-0.8,0l-6.8,3.9
			c-0.2,0.1-0.3,0.3,0,0.5l5.3,3c0.3,0.1,0.5,0.1,0.8,0l6.8-3.9c0.2-0.1,0.3-0.3,0-0.5L278.8,247.6z M307.6,230.9
			c-0.3-0.1-0.5-0.1-0.8,0l-5.5,3.2c-0.2,0.1-0.2,0.3,0,0.5l5.2,3c0.3,0.1,0.5,0.1,0.8,0l5.5-3.2c0.2-0.1,0.3-0.3,0-0.5L307.6,230.9
			z M325.6,218.4l5.5-3.2c0.2-0.1,0.3-0.3,0-0.5l-5.3-3c-0.3-0.1-0.5-0.1-0.8,0l-5.5,3.2c-0.2,0.1-0.2,0.3,0,0.5l5.3,3
			C325.1,218.5,325.4,218.5,325.6,218.4L325.6,218.4z M292.7,219.9l5.5-3.2c0.2-0.1,0.3-0.3,0-0.5l-5.3-3c-0.3-0.1-0.6-0.1-0.8,0
			l-5.5,3.2c-0.2,0.1-0.2,0.3,0,0.5l5.3,3C292.2,220.1,292.5,220,292.7,219.9L292.7,219.9z M271.4,249.6l16.1-9.3
			c0.2-0.1,0.3-0.3,0-0.5l-5.3-3c-0.3-0.1-0.5-0.1-0.8,0l-16.1,9.3c-0.2,0.1-0.3,0.3,0,0.5l5.3,3
			C270.8,249.7,271.1,249.8,271.4,249.6z M316.8,223c0.3,0.1,0.5,0.1,0.8,0l5.5-3.2c0.2-0.1,0.3-0.3,0-0.5l-5.3-3
			c-0.3-0.1-0.5-0.1-0.8,0l-5.5,3.2c-0.2,0.1-0.3,0.4,0,0.5L316.8,223z M310,218.6l5.5-3.2c0.2-0.1,0.3-0.3,0-0.5l-5.3-3
			c-0.3-0.1-0.5-0.1-0.8,0l-5.5,3.2c-0.2,0.1-0.3,0.4,0,0.5l5.3,3C309.5,218.7,309.8,218.7,310,218.6z M263.3,254.3l5.5-3.2
			c0.2-0.1,0.3-0.3,0-0.5l-5.3-3c-0.3-0.1-0.5-0.1-0.8,0l-5.5,3.2c-0.2,0.1-0.2,0.3,0,0.5l5.3,3
			C262.8,254.4,263.1,254.4,263.3,254.3L263.3,254.3z M299,233.3c0.3,0.1,0.5,0.1,0.8,0l5.5-3.2c0.2-0.1,0.2-0.3,0-0.5l-5.3-3
			c-0.3-0.1-0.5-0.1-0.8,0l-5.5,3.2c-0.2,0.1-0.2,0.3,0,0.5L299,233.3z M223,277.6l5.5-3.2c0.2-0.1,0.2-0.3,0-0.5l-5.3-3
			c-0.3-0.1-0.5-0.1-0.8,0l-5.5,3.2c-0.2,0.1-0.2,0.4-0.1,0.5l5.3,3C222.4,277.7,222.8,277.7,223,277.6z M231.1,272.9l5.5-3.2
			c0.2-0.1,0.3-0.3,0-0.5l-5.2-3.1c-0.3-0.1-0.5-0.1-0.8,0l-5.5,3.2c-0.2,0.1-0.3,0.4,0,0.5l5.3,3C230.6,273,230.9,273,231.1,272.9
			L231.1,272.9z M215,282.2l5.5-3.2c0.2-0.1,0.3-0.3,0-0.5l-5.3-3c-0.3-0.1-0.5-0.1-0.8,0l-5.5,3.2c-0.2,0.1-0.3,0.4-0.1,0.5l5.3,3
			C214.4,282.4,214.7,282.4,215,282.2L215,282.2z M247.2,263.6l5.5-3.2c0.2-0.1,0.3-0.3,0-0.5l-5.3-3c-0.3-0.1-0.5-0.1-0.8,0
			l-5.5,3.2c-0.2,0.1-0.3,0.3,0,0.5l5.2,3C246.7,263.7,246.9,263.7,247.2,263.6z M239.1,268.2l5.5-3.2c0.2-0.1,0.2-0.3,0-0.5l-5.3-3
			c-0.3-0.1-0.5-0.1-0.8,0l-5.5,3.2c-0.2,0.1-0.2,0.4,0,0.5l5.3,3C238.6,268.4,238.9,268.4,239.1,268.2L239.1,268.2z M255.3,258.9
			l5.5-3.2c0.2-0.1,0.2-0.3,0-0.5l-5.3-3c-0.3-0.1-0.5-0.1-0.8,0l-5.5,3.2c-0.2,0.1-0.3,0.3,0,0.5l5.3,3
			C254.7,259.1,255,259.1,255.3,258.9L255.3,258.9z M299.2,194.2c0.3,0.1,0.5,0.1,0.8,0l5.5-3.2c0.2-0.1,0.3-0.3,0-0.5l-1.4-0.8
			c-0.3-0.1-0.5-0.1-0.8,0l-5.5,3.2c-0.2,0.1-0.2,0.3,0,0.5L299.2,194.2z M259.2,219.6c0.3,0.1,0.5,0.1,0.8,0l5.5-3.2
			c0.2-0.1,0.2-0.4,0-0.5l-5.3-3c-0.3-0.1-0.5-0.1-0.8,0l-5.5,3.2c-0.2,0.1-0.2,0.3,0,0.5L259.2,219.6z M275.3,210.3
			c0.3,0.1,0.5,0.1,0.8,0l5.5-3.2c0.2-0.1,0.2-0.4,0-0.5l-5.2-3.1c-0.3-0.1-0.5-0.1-0.8,0l-5.5,3.2c-0.2,0.1-0.3,0.3,0,0.5
			L275.3,210.3z M249.4,225.3c0.3,0.1,0.5,0.1,0.8,0l5.5-3.2c0.2-0.1,0.3-0.3,0-0.5l-5.3-3.1c-0.3-0.1-0.5-0.1-0.8,0l-5.5,3.2
			c-0.2,0.1-0.3,0.3,0,0.5L249.4,225.3z M267.3,215c0.3,0.1,0.5,0.1,0.8,0l5.5-3.2c0.2-0.1,0.3-0.4,0-0.5l-5.3-3
			c-0.3-0.1-0.5-0.1-0.8,0l-5.5,3.2c-0.2,0.1-0.3,0.3,0,0.5L267.3,215z M233.3,234.6c0.3,0.1,0.5,0.1,0.8,0l5.5-3.2
			c0.2-0.1,0.3-0.4,0-0.5l-5.3-3c-0.3-0.1-0.5-0.1-0.8,0l-5.5,3.2c-0.2,0.1-0.3,0.3-0.1,0.5L233.3,234.6z M241.3,230
			c0.3,0.1,0.5,0.1,0.8,0l5.5-3.2c0.2-0.1,0.2-0.4,0-0.5l-5.3-3c-0.3-0.1-0.5-0.1-0.8,0l-5.5,3.2c-0.2,0.1-0.2,0.3,0,0.5L241.3,230z
			 M283.1,203.6c0.3,0.1,0.5,0.1,0.8,0l5.5-3.2c0.2-0.1,0.3-0.3,0-0.5l-1.4-0.8c-0.3-0.1-0.5-0.1-0.8,0l-5.5,3.2
			c-0.2,0.1-0.3,0.3,0,0.5L283.1,203.6z M307.3,189.6c0.3,0.1,0.5,0.1,0.8,0l5.5-3.2c0.2-0.1,0.2-0.3,0-0.5l-1.4-0.8
			c-0.3-0.1-0.5-0.1-0.8,0l-5.5,3.2c-0.2,0.1-0.3,0.3,0,0.5L307.3,189.6z M318.3,196c0.3,0.1,0.5,0.1,0.8,0l5.5-3.2
			c0.2-0.1,0.3-0.3,0-0.5l-5.3-3c-0.3-0.1-0.5-0.1-0.8,0l-5.5,3.2c-0.2,0.1-0.3,0.3,0,0.5L318.3,196z M333.7,213.7l5.5-3.2
			c0.2-0.1,0.3-0.3,0-0.5l-5.3-3c-0.3-0.1-0.5-0.1-0.8,0l-5.5,3.2c-0.2,0.1-0.3,0.3,0,0.5l5.3,3
			C333.1,213.8,333.4,213.8,333.7,213.7L333.7,213.7z M291.2,198.9c0.3,0.1,0.5,0.1,0.8,0l5.5-3.2c0.2-0.1,0.2-0.3,0-0.5l-1.4-0.8
			c-0.3-0.1-0.5-0.1-0.8,0l-5.5,3.2c-0.2,0.1-0.3,0.3,0,0.5L291.2,198.9z M225.2,239.2c0.3,0.1,0.5,0.1,0.8,0l5.5-3.2
			c0.2-0.1,0.2-0.4,0-0.5l-5.3-3c-0.3-0.1-0.5-0.1-0.8,0l-5.5,3.2c-0.2,0.1-0.2,0.3-0.1,0.5L225.2,239.2z"/>
		<polygon class="st6" points="249,280.8 250.1,281.4 280.2,298.8 333.5,267.9 334.6,267.3 303.5,249.3 		"/>
		<polygon class="st8" points="250.1,281.4 280.2,298.8 333.5,267.9 303.5,250.6 		"/>
	</g>
</g>
<g id="Mail_Box">
	<g id="MailBox">
		<path class="st2" d="M80.5,145.8l-12.2-7c-0.5-0.3-0.9-0.4-1.2-0.3l-1.5,0.9c-0.3,0.1-0.2,0.6,0.1,1.3l3,6.2l-2.2,2
			c-0.8,0.6-0.9,1.7-0.3,2.4c0.2,0.2,0.4,0.4,0.6,0.5l12.2,7.1l1.5-0.9L80.5,145.8z"/>
		<path class="st10" d="M80.5,145.8l-12.2-7c-0.5-0.3-0.9-0.4-1.2-0.3l-1.5,0.9c-0.3,0.1-0.2,0.6,0.1,1.3l3,6.2l-2.2,2
			c-0.8,0.6-0.9,1.7-0.3,2.4c0.2,0.2,0.4,0.4,0.6,0.5l12.2,7.1l1.5-0.9L80.5,145.8z"/>
		<path class="st2" d="M66.7,139.6c-1.2-0.7-1.7-0.2-1.1,1l3,6.2l-2.2,2c-0.8,0.6-0.9,1.7-0.3,2.4c0.2,0.2,0.4,0.4,0.6,0.5l12.2,7.1
			v-12.1L66.7,139.6z"/>
		<path class="st2" d="M80.4,184.7c-0.8,0-1.4-0.6-1.4-1.4c0,0,0,0,0,0v-40.6c0.1-0.8,0.8-1.4,1.6-1.3c0.7,0.1,1.3,0.6,1.3,1.3v40.6
			C81.8,184,81.2,184.7,80.4,184.7C80.4,184.7,80.4,184.7,80.4,184.7z"/>
		<path class="st8" d="M27.8,292.9v-2.5h0.6c1-1.7,2.4-3.1,4.1-4c6.3-3.6,16.6-3.6,22.9,0c1.7,0.9,3.2,2.3,4.1,4h0.6v2.5
			c0,2.4-1.5,4.9-4.7,6.7c-6.3,3.6-16.6,3.6-22.9,0C29.4,297.7,27.8,295.3,27.8,292.9z"/>
		<ellipse class="st7" cx="44" cy="290.3" rx="16.2" ry="9.3"/>
		<path class="st6" d="M48.1,202.4v86.9c-0.1,0.7-0.5,1.4-1.2,1.7c-1.9,0.9-4,0.9-5.9,0c-0.7-0.3-1.2-1-1.2-1.7v-86.9H48.1z"/>
		<polygon class="st8" points="39.8,212.9 39.8,221 48.1,225.8 48.1,217.7 		"/>
		<path class="st2" d="M70,194.6l15.4,8.9c-0.1,0.1-0.2,0.2-0.3,0.3l-26.9,15.5c-0.2,0.1-0.4,0-0.4-0.2v-19.4
			c0.1-3.7,0.8-7.4,2.2-10.9L70,194.6z"/>
		<path class="st11" d="M70,194.6l15.4,8.9c-0.1,0.1-0.2,0.2-0.3,0.3l-26.9,15.5c-0.2,0.1-0.4,0-0.4-0.2v-19.4
			c0.1-3.7,0.8-7.4,2.2-10.9L70,194.6z"/>
		<path class="st2" d="M85.5,181.8v21.8L60,188.8l0.1-0.2c2.7-6.8,7.3-12.6,12.3-15.5c1.7-1.1,3.7-1.7,5.8-1.8
			C82.7,171.3,85.5,175.3,85.5,181.8z"/>
		<path class="st12" d="M85.5,181.8v21.8L60,188.8l0.1-0.2c2.7-6.8,7.3-12.6,12.3-15.5c1.7-1.1,3.7-1.7,5.8-1.8
			C82.7,171.3,85.5,175.3,85.5,181.8z"/>
		<path class="st2" d="M113.2,227.8v-1.9H113v0.3c-0.1-0.5-0.3-1.1-0.5-1.6c-1-2.4-3.2-4.7-6.4-6.5l-18.2-10.5
			c-0.9-0.4-1.9-0.4-2.8,0l-27.9,16.1c-0.3-0.3-0.6-0.6-0.9-1v2l0,0c0,0.3,0.2,0.6,0.6,0.8l18.2,10.5c5.4,2.9,11.4,4.3,17.4,4.1
			c5.1,0.1,10-1.2,14.5-3.5C111.2,234.1,113.2,231,113.2,227.8L113.2,227.8z"/>
		<path class="st11" d="M113.2,227.8v-1.9H113v0.3c-0.1-0.5-0.3-1.1-0.5-1.6c-1-2.4-3.2-4.7-6.4-6.5l-18.2-10.5
			c-0.9-0.4-1.9-0.4-2.8,0l-27.9,16.1c-0.3-0.3-0.6-0.6-0.9-1v2l0,0c0,0.3,0.2,0.6,0.6,0.8l18.2,10.5c5.4,2.9,11.4,4.3,17.4,4.1
			c5.1,0.1,10-1.2,14.5-3.5C111.2,234.1,113.2,231,113.2,227.8L113.2,227.8z"/>
		<path class="st2" d="M112.5,224.6c-1-2.4-3.2-4.7-6.4-6.5l-18.2-10.5c-0.9-0.4-1.9-0.4-2.8,0l-27.9,16.1l17.9,10.3
			c5.4,2.9,11.4,4.3,17.4,4.1c5.1,0.1,10-1.2,14.5-3.5c3.7-2.1,5.7-4.9,6.1-7.7C113.1,226.1,112.9,225.3,112.5,224.6z"/>
		<path class="st13" d="M112.5,224.6c-1-2.4-3.2-4.7-6.4-6.5l-18.2-10.5c-0.9-0.4-1.9-0.4-2.8,0l-27.9,16.1l17.9,10.3
			c5.4,2.9,11.4,4.3,17.4,4.1c5.1,0.1,10-1.2,14.5-3.5c3.7-2.1,5.7-4.9,6.1-7.7C113.1,226.1,112.9,225.3,112.5,224.6z"/>
		<path class="st2" d="M113.2,226.8c-0.1-0.8-0.3-1.5-0.6-2.2c-1-2.4-3.2-4.7-6.4-6.5l-18.2-10.5c-0.9-0.4-1.9-0.4-2.8,0l-27.9,16.1
			l-0.3-0.2c-0.4-0.1-0.7-0.6-0.5-1.1c0.1-0.2,0.3-0.4,0.5-0.5l28.2-16.2c0.9-0.4,1.9-0.4,2.8,0l18.2,10.5c3.3,1.9,5.4,4.2,6.4,6.5
			c0.3,0.8,0.6,1.6,0.6,2.4C113.2,225.6,113.2,226.2,113.2,226.8z"/>
		<path class="st12" d="M113.2,226.8c-0.1-0.8-0.3-1.5-0.6-2.2c-1-2.4-3.2-4.7-6.4-6.5l-18.2-10.5c-0.9-0.4-1.9-0.4-2.8,0
			l-27.9,16.1l-0.3-0.2c-0.4-0.1-0.7-0.6-0.5-1.1c0.1-0.2,0.3-0.4,0.5-0.5l28.2-16.2c0.9-0.4,1.9-0.4,2.8,0l18.2,10.5
			c3.3,1.9,5.4,4.2,6.4,6.5c0.3,0.8,0.6,1.6,0.6,2.4C113.2,225.6,113.2,226.2,113.2,226.8z"/>
		<polygon class="st2" points="57.5,221.6 85.7,205.3 85.1,203.8 58.2,219.4 		"/>
		<polygon class="st14" points="57.5,221.6 85.7,205.3 85.1,203.8 58.2,219.4 		"/>
		<g id="Letter">
			<path class="st0" d="M83,180.6c0-0.5-0.3-0.9-0.7-1.2L48,159.6c-0.4-0.2-0.9-0.2-1.3,0l-0.8,0.4c-0.4,0.3-0.6,0.7-0.7,1.2v26.3
				c0,0.5,0.3,0.9,0.7,1.2l34.3,19.8c0.4,0.2,0.9,0.2,1.3,0l0.8-0.4c0.4-0.3,0.6-0.7,0.7-1.2V180.6z"/>
			<path class="st1" d="M82.8,179.9l-1.9,1.1l-35.5-20.5c0.1-0.2,0.3-0.4,0.5-0.5l0.8-0.4c0.4-0.2,0.9-0.2,1.3,0l34.4,19.8
				C82.6,179.5,82.7,179.7,82.8,179.9z"/>
			<path class="st15" d="M80.8,208.6L80.8,208.6z"/>
			<path class="st16" d="M80.9,181l-0.3,0.2c0.2,0.1,0.4,0.3,0.3,0.6v26.3c0,0.2-0.1,0.3-0.2,0.4c-0.1,0-0.2,0-0.3,0l-0.1-0.1
				l-34.3-19.8c-0.4-0.3-0.6-0.7-0.7-1.2v-26.3c0-0.2,0.1-0.5,0.2-0.7L80.9,181z"/>
			<path class="st17" d="M80.9,181L65,186.9c-1.1,0.4-2.4,0-3.1-1l-2.6-3.9l-14.1-21.6l13.6,21.7l-13.6,5.3c0,0.2,0.1,0.5,0.2,0.7
				l13.5-5.9l3,4.8c0.7,1.1,2.1,1.5,3.2,1l2.1-0.9l13.5,21.5c0.1-0.1,0.2-0.3,0.2-0.4v-0.5L67.3,187L80.9,181z"/>
		</g>
		<g id="Letter-2">
			<path class="st0" d="M74.9,185.2c0-0.5-0.3-0.9-0.7-1.2l-34.3-19.8c-0.4-0.2-0.9-0.2-1.3,0l-0.8,0.4c-0.4,0.3-0.6,0.7-0.7,1.2
				v26.3c0,0.5,0.3,0.9,0.7,1.2l34.3,19.8c0.4,0.2,0.9,0.2,1.3,0l0.8-0.4c0.4-0.3,0.6-0.7,0.7-1.2V185.2z"/>
			<path class="st1" d="M74.7,184.6l-1.9,1.1l-35.5-20.5c0.1-0.2,0.3-0.4,0.5-0.5l0.8-0.4c0.4-0.2,0.9-0.2,1.3,0L74.2,184
				C74.4,184.2,74.6,184.4,74.7,184.6z"/>
			<path class="st15" d="M72.7,213.3L72.7,213.3z"/>
			<path class="st16" d="M72.8,185.6l-0.3,0.2c0.2,0.1,0.4,0.3,0.3,0.6v26.3c0,0.2-0.1,0.3-0.2,0.4c-0.1,0-0.2,0-0.3,0l-0.1-0.1
				l-34.3-19.8c-0.4-0.3-0.6-0.7-0.7-1.2v-26.3c0-0.2,0.1-0.5,0.2-0.7L72.8,185.6z"/>
			<path class="st17" d="M72.8,185.6l-15.9,5.9c-1.1,0.4-2.4,0-3.1-1l-2.6-3.9l-14.1-21.6l13.6,21.7l-13.6,5.3
				c0,0.2,0.1,0.5,0.2,0.7l13.5-6l3,4.8c0.7,1.1,2.1,1.5,3.2,1l2.1-0.9l13.4,21.5c0.1-0.1,0.2-0.3,0.2-0.4v-0.4l-13.6-20.6
				L72.8,185.6z"/>
		</g>
		<g id="Letter-3">
			<path class="st0" d="M66.8,189.9c0-0.5-0.3-0.9-0.7-1.2l-34.3-19.8c-0.4-0.2-0.9-0.2-1.3,0l-0.8,0.4c-0.4,0.3-0.6,0.7-0.7,1.2
				v26.3c0,0.5,0.3,0.9,0.7,1.2L64,217.8c0.4,0.2,0.9,0.2,1.3,0l0.8-0.4c0.4-0.3,0.6-0.7,0.7-1.2V189.9z"/>
			<path class="st1" d="M66.6,189.2l-1.9,1.1l-35.5-20.5c0.1-0.2,0.3-0.4,0.5-0.5l0.8-0.4c0.4-0.2,0.9-0.2,1.3,0l34.3,19.8
				C66.3,188.8,66.5,189,66.6,189.2z"/>
			<path class="st15" d="M64.5,217.9c0,0,0.1,0,0.1,0l0,0C64.6,217.9,64.6,217.9,64.5,217.9z"/>
			<path class="st16" d="M64.7,190.3l-0.3,0.2c0.2,0.1,0.4,0.3,0.3,0.6v26.3c0,0.2-0.1,0.3-0.2,0.4c-0.1,0-0.2,0-0.3,0l-0.1,0
				l-34.3-19.8c-0.4-0.3-0.6-0.7-0.7-1.2v-26.3c0-0.2,0.1-0.5,0.2-0.7L64.7,190.3z"/>
			<path class="st17" d="M64.7,190.3l-15.9,5.9c-1.1,0.4-2.4,0-3.1-1l-2.6-3.9l-14.1-21.6l13.6,21.7L29,196.8c0,0.2,0.1,0.5,0.2,0.7
				l13.5-6l3,4.8c0.7,1.1,2.1,1.5,3.2,1l2.1-0.9l13.5,21.5c0.1-0.1,0.2-0.3,0.2-0.4v-0.4l-13.6-20.6L64.7,190.3z"/>
		</g>
		<path class="st2" d="M82,170.6c-2.7-1.4-6.3-1.2-10.3,1.1c-4.4,2.6-8.5,7.2-11.3,12.5c-0.7,1.2-1.2,2.5-1.8,3.8
			c-1.5,3.7-2.4,7.7-2.4,11.7v22.2c-0.5,0-0.9-0.1-1.4-0.3l-39.5-22.8c-0.8-0.5-1.3-1.4-1.4-2.4v-21.1c0-10.5,6.9-23,15.5-28
			c4-2.3,7.7-2.5,10.5-1l0,0L82,170.6z"/>
		<path class="st13" d="M82,170.6c-2.7-1.4-6.3-1.2-10.3,1.1c-4.4,2.6-8.5,7.2-11.3,12.5c-0.7,1.2-1.2,2.5-1.8,3.8
			c-1.5,3.7-2.4,7.7-2.4,11.7v22.2c-0.5,0-0.9-0.1-1.4-0.3l-39.5-22.8c-0.8-0.5-1.3-1.4-1.4-2.4v-21.1c0-10.5,6.9-23,15.5-28
			c4-2.3,7.7-2.5,10.5-1l0,0L82,170.6z"/>
		<path class="st18" d="M15.3,198.7l39.5,22.9c0.4,0.2,0.9,0.3,1.4,0.3v-22.2c0-2.1,0.3-4.2,0.7-6.2l-42.2-24.4
			c-0.5,2-0.7,4.1-0.7,6.2v21.1C14,197.3,14.5,198.2,15.3,198.7z"/>
		<path class="st2" d="M58.6,188c-1.5,3.7-2.4,7.7-2.4,11.7v22.2c-0.2,0-0.3,0-0.5-0.1c0-1.3,0-8.4,0-22.1c0-16.3,12.6-26.7,16-28
			c-4.4,2.6-8.5,7.2-11.3,12.5C59.7,185.4,59.1,186.7,58.6,188z"/>
		<path class="st11" d="M58.6,188c-1.5,3.7-2.4,7.7-2.4,11.7v22.2c-0.2,0-0.3,0-0.5-0.1c0-1.3,0-8.4,0-22.1c0-16.3,12.6-26.7,16-28
			c-4.4,2.6-8.5,7.2-11.3,12.5C59.7,185.4,59.1,186.7,58.6,188z"/>
		<path class="st2" d="M58.2,219.4c-0.2,0.1-0.4,0-0.4-0.2v-19.4c0.1-3.7,0.8-7.4,2.2-10.9l0.1-0.2c0.5-1.4,1.2-2.7,1.9-4
			c2.7-5,6.4-9.2,10.4-11.5c1.7-1.1,3.7-1.7,5.8-1.8c1,0,2.1,0.2,3,0.7c2.7,1.4,4.3,4.9,4.3,9.8v21.2c0,0.3-0.2,0.6-0.4,0.7l0.6,1.5
			l0.1-0.1c0.2-0.2,0.4-0.3,0.6-0.5l0,0c0.4-0.5,0.6-1.1,0.7-1.7v-21.1c0-5.6-2-9.6-5.2-11.2c-2.7-1.4-6.3-1.2-10.3,1.1
			c-4.4,2.6-8.5,7.2-11.3,12.5c-0.7,1.2-1.2,2.5-1.8,3.8c-1.5,3.7-2.4,7.7-2.4,11.7v22.2h0.3c0.4,0,0.8-0.1,1.1-0.3L58.2,219.4z"/>
		<path class="st14" d="M58.2,219.4c-0.2,0.1-0.4,0-0.4-0.2v-19.4c0.1-3.7,0.8-7.4,2.2-10.9l0.1-0.2c0.5-1.4,1.2-2.7,1.9-4
			c2.7-5,6.4-9.2,10.4-11.5c1.7-1.1,3.7-1.7,5.8-1.8c1,0,2.1,0.2,3,0.7c2.7,1.4,4.3,4.9,4.3,9.8v21.2c0,0.3-0.2,0.6-0.4,0.7l0.6,1.5
			l0.1-0.1c0.2-0.2,0.4-0.3,0.6-0.5l0,0c0.4-0.5,0.6-1.1,0.7-1.7v-21.1c0-5.6-2-9.6-5.2-11.2c-2.7-1.4-6.3-1.2-10.3,1.1
			c-4.4,2.6-8.5,7.2-11.3,12.5c-0.7,1.2-1.2,2.5-1.8,3.8c-1.5,3.7-2.4,7.7-2.4,11.7v22.2h0.3c0.4,0,0.8-0.1,1.1-0.3L58.2,219.4z"/>
	</g>
</g>
<g id="Envelopes">
	<g id="Envelope">
		<g id="Letter-4">
			<path class="st2" d="M152.3,162.5c0.1-1.8,1.1-3.5,2.6-4.5l128.2-74c1.6-0.8,3.6-0.8,5.2,0l2.9,1.7c1.5,1,2.5,2.7,2.6,4.5V192
				c-0.1,1.8-1.1,3.5-2.6,4.5l-128.2,74c-1.6,0.8-3.6,0.8-5.2,0l-2.9-1.7c-1.5-1-2.5-2.7-2.6-4.5V162.5z"/>
			<g class="st19">
				<path class="st4" d="M152.3,162.5c0.1-1.8,1.1-3.5,2.6-4.5l128.2-74c1.6-0.8,3.6-0.8,5.2,0l2.9,1.7c1.5,1,2.5,2.7,2.6,4.5V192
					c-0.1,1.8-1.1,3.5-2.6,4.5l-128.2,74c-1.6,0.8-3.6,0.8-5.2,0l-2.9-1.7c-1.5-1-2.5-2.7-2.6-4.5V162.5z"/>
			</g>
			<path class="st2" d="M153.1,159.9l7.4,4.2l132.6-76.6c-0.4-0.8-1.1-1.5-1.8-1.9l-2.9-1.7c-1.6-0.8-3.6-0.8-5.2,0l-128.2,74
				C154.2,158.4,153.5,159.1,153.1,159.9z"/>
			<path class="st20" d="M153.1,159.9l7.4,4.2l132.6-76.6c-0.4-0.8-1.1-1.5-1.8-1.9l-2.9-1.7c-1.6-0.8-3.6-0.8-5.2,0l-128.2,74
				C154.2,158.4,153.5,159.1,153.1,159.9z"/>
			<path class="st21" d="M152.3,162.5v101.9c0.1,1.8,1.1,3.5,2.6,4.5l2.9,1.7c0.2,0.1,0.5,0.2,0.7,0.3c0.3,0.1,0.7,0.2,1.1,0.2
				c0.7,0.1,1.4,0.1,2.1-0.1l0.5-0.1l0.3-0.1c-0.4,0.2-0.9,0.1-1.3,0c-0.6-0.4-0.9-1-0.8-1.7V167.2c-0.1-0.9,0.5-1.8,1.4-2.2
				l-1.4-0.8l-7.4-4.2C152.6,160.7,152.4,161.6,152.3,162.5z"/>
			<path class="st22" d="M152.3,162.5v101.9c0.1,1.8,1.1,3.5,2.6,4.5l2.9,1.7c0.2,0.1,0.5,0.2,0.7,0.3c0.3,0.1,0.7,0.2,1.1,0.2
				c0.7,0.1,1.4,0.1,2.1-0.1l0.5-0.1l0.3-0.1c-0.4,0.2-0.9,0.1-1.3,0c-0.6-0.4-0.9-1-0.8-1.7V167.2c-0.1-0.9,0.5-1.8,1.4-2.2
				l-1.4-0.8l-7.4-4.2C152.6,160.7,152.4,161.6,152.3,162.5z"/>
			<path class="st23" d="M160.5,164.2l61.6,23c4.4,1.6,9.3,0,11.9-3.9l9.9-15.1l49.3-80.5l-47.3,81.1l48.1,23.4
				c0,0.9-0.3,1.8-0.8,2.6l-47.4-25.8l-11.5,18.4c-2.6,4.2-8,5.9-12.5,3.8l-8.2-3.6l-52.1,83.2c-0.6-0.4-0.9-1-0.8-1.7v-1.7
				l52.7-79.9L160.5,164.2z"/>
			<path class="st22" d="M160.5,164.2l61.6,23c4.4,1.6,9.3,0,11.9-3.9l9.9-15.1l49.3-80.5l-47.3,81.1l48.1,23.4
				c0,0.9-0.3,1.8-0.8,2.6l-47.4-25.8l-11.5,18.4c-2.6,4.2-8,5.9-12.5,3.8l-8.2-3.6l-52.1,83.2c-0.6-0.4-0.9-1-0.8-1.7v-1.7
				l52.7-79.9L160.5,164.2z"/>
		</g>
	</g>
	<g id="Envelope-2">
		<g id="Letter-5">
			<path class="st2" d="M184.8,181.2c0.1-1.8,1.1-3.5,2.6-4.5l128.2-74c1.6-0.8,3.6-0.8,5.2,0l2.9,1.7c1.5,1,2.5,2.7,2.6,4.5v101.9
				c-0.1,1.8-1.1,3.5-2.6,4.5l-128.2,74c-1.6,0.8-3.6,0.8-5.2,0l-3-1.7c-1.5-1-2.5-2.7-2.6-4.5L184.8,181.2z"/>
			<g class="st24">
				<path class="st4" d="M184.8,181.2c0.1-1.8,1.1-3.5,2.6-4.5l128.2-74c1.6-0.8,3.6-0.8,5.2,0l2.9,1.7c1.5,1,2.5,2.7,2.6,4.5v101.9
					c-0.1,1.8-1.1,3.5-2.6,4.5l-128.2,74c-1.6,0.8-3.6,0.8-5.2,0l-3-1.7c-1.5-1-2.5-2.7-2.6-4.5L184.8,181.2z"/>
			</g>
			<path class="st2" d="M185.6,178.7l7.4,4.2l132.6-76.6c-0.4-0.8-1.1-1.5-1.8-1.9l-2.9-1.7c-1.6-0.8-3.6-0.8-5.2,0l-128.2,74
				C186.6,177.2,186,177.9,185.6,178.7z"/>
			<path class="st25" d="M185.6,178.7l7.4,4.2l132.6-76.6c-0.4-0.8-1.1-1.5-1.8-1.9l-2.9-1.7c-1.6-0.8-3.6-0.8-5.2,0l-128.2,74
				C186.6,177.2,186,177.9,185.6,178.7z"/>
			<path class="st14" d="M184.8,181.2v101.9c0.1,1.8,1.1,3.5,2.6,4.5l2.9,1.7c0.2,0.1,0.5,0.2,0.7,0.3c0.3,0.1,0.7,0.2,1.1,0.2
				c0.7,0.1,1.4,0.1,2.1-0.1l0.5-0.1c0.1,0,0.2-0.1,0.3-0.1c-0.4,0.2-0.8,0.2-1.2,0c-0.6-0.4-0.9-1-0.8-1.7V185.9
				c-0.1-0.9,0.5-1.8,1.4-2.2l-1.4-0.8l-7.4-4.2C185.1,179.5,184.9,180.3,184.8,181.2z"/>
			<path class="st26" d="M193,182.9l61.5,23c4.4,1.6,9.3,0,11.9-3.9l9.9-15.1l49.3-80.5l-47.3,81.1l48.1,23.4c0,0.9-0.3,1.8-0.8,2.6
				l-47.4-25.8l-11.5,18.4c-2.6,4.2-8,5.9-12.5,3.9l-8.2-3.6l-52.1,83.2c-0.6-0.4-0.9-1-0.8-1.7v-1.7l52.7-79.9L193,182.9z"/>
			<path class="st22" d="M193,182.9l61.5,23c4.4,1.6,9.3,0,11.9-3.9l9.9-15.1l49.3-80.5l-47.3,81.1l48.1,23.4c0,0.9-0.3,1.8-0.8,2.6
				l-47.4-25.8l-11.5,18.4c-2.6,4.2-8,5.9-12.5,3.9l-8.2-3.6l-52.1,83.2c-0.6-0.4-0.9-1-0.8-1.7v-1.7l52.7-79.9L193,182.9z"/>
		</g>
	</g>
</g>
<g id="Open_Envelope">
	<g id="Open_Envelope-2">
		<path class="st2" d="M217.6,200.9l133.4-77l5.3,3.1c1.5,1,2.4,2.6,2.5,4.3v98.4c-0.1,1.8-1,3.4-2.5,4.3L228,308.1
			c-1.6,0.8-3.4,0.8-5,0l-2.8-1.6c-1.5-1-2.4-2.6-2.5-4.3L217.6,200.9z"/>
		<path class="st13" d="M217.6,200.9l133.4-77l5.3,3.1c1.5,1,2.4,2.6,2.5,4.3v98.4c-0.1,1.8-1,3.4-2.5,4.3L228,308.1
			c-1.6,0.8-3.4,0.8-5,0l-2.8-1.6c-1.5-1-2.4-2.6-2.5-4.3L217.6,200.9z"/>
		<path class="st2" d="M350.2,115.2l0.5-0.3l-2.1-1.2l0,0c-0.2-0.1-0.4-0.2-0.5-0.3l-58.7-21.8c-1.7-0.5-3.5,0-4.5,1.4L219.3,189
			c-1,1.7-1.6,3.5-1.7,5.5v6.4l2,1.2l131.3-78.2v-6.4C350.9,116.7,350.7,115.9,350.2,115.2z"/>
		<path class="st18" d="M287.7,93.6c-0.3,0.2-0.5,0.4-0.7,0.7l-65.7,95.9c-0.5,0.8-1,1.8-1.2,2.7l-2-1.2c0.1-0.5,0.3-1,0.5-1.5l0,0
			c0.1-0.2,0.2-0.4,0.3-0.6l0.1-0.1c0.1-0.2,0.2-0.4,0.4-0.6L285,93.2c0.1-0.1,0.2-0.3,0.3-0.4l0.4-0.3L287.7,93.6z"/>
		<path class="st27" d="M350.8,114.9c-0.2-0.1-0.4-0.2-0.6-0.3l-58.7-21.8c-1.3-0.4-2.8-0.2-3.8,0.7l-2-1.2c1.1-0.9,2.5-1.1,3.8-0.7
			l58.7,21.8c0.2,0.1,0.4,0.2,0.5,0.3L350.8,114.9z"/>
		<path class="st2" d="M218.9,189.6c0.1-0.2,0.2-0.4,0.4-0.6C219.2,189.2,219.1,189.4,218.9,189.6z"/>
		<path class="st2" d="M285.3,92.7l0.4-0.3L285.3,92.7z"/>
		<path class="st2" d="M218.1,191.7c0.1-0.5,0.3-1,0.5-1.5C218.4,190.8,218.2,191.2,218.1,191.7z"/>
		<path class="st2" d="M218.6,190.2c0.1-0.2,0.2-0.4,0.3-0.6C218.8,189.9,218.7,190,218.6,190.2z"/>
		<path class="st13" d="M218.6,190.3L218.6,190.3z"/>
		<polygon class="st13" points="218.1,191.7 218.1,191.7 218.1,191.7 		"/>
		<polygon class="st13" points="285.6,92.4 285.6,92.4 285.6,92.4 		"/>
		<path class="st13" d="M218.9,189.7C218.9,189.6,218.9,189.6,218.9,189.7C218.9,189.6,218.9,189.6,218.9,189.7z"/>
		<path class="st13" d="M285,93.1c0.1-0.1,0.2-0.3,0.3-0.4C285.2,92.8,285.1,93,285,93.1z"/>
		<path class="st2" d="M287,94.3l-65.7,95.9c-1,1.7-1.6,3.5-1.7,5.5v6.4L353,125v-6.4c-0.1-1.8-1.2-3.3-2.8-4l-58.7-21.8
			C289.8,92.3,288,92.9,287,94.3z"/>
		<path class="st28" d="M353,118.6c0-0.8-0.3-1.6-0.7-2.2l-132.2,76.5l0,0c-0.3,0.9-0.4,1.8-0.5,2.7v6.4L353,125L353,118.6z"/>
		<path class="st29" d="M347.3,91.6c0.1-0.5-0.2-1.1-0.6-1.4l-4.1-2.4c-0.5-0.2-1.1-0.2-1.5,0.2l-109.4,63.2
			c-1.3,0.8-2.1,2.2-2.2,3.8v131c-0.1,0.5,0.2,1.1,0.6,1.4l4.1,2.4c0.5,0.2,1.1,0.2,1.5-0.1l109.4-63.2c1.3-0.8,2.1-2.2,2.2-3.8
			V91.6z"/>
		<path class="st9" d="M235.8,289.6l109.4-63.2c1.3-0.8,2.1-2.2,2.2-3.8v-131c0-1.4-1-1.9-2.2-1.2l-109.4,63.2
			c-1.3,0.8-2.1,2.2-2.2,3.8v131C233.6,289.7,234.6,290.2,235.8,289.6z"/>
		<path class="st2" d="M305.9,165.6c-0.1,1.5-0.4,2.9-0.8,4.4c-0.4,1.3-0.9,2.5-1.6,3.7c-0.6,1-1.3,2-2.1,2.8
			c-0.7,0.7-1.4,1.3-2.3,1.8c-0.9,0.6-2,0.9-3.1,0.8c-0.6-0.1-1.2-0.5-1.6-1c-0.2,0.5-0.5,1-0.8,1.6c-0.3,0.6-0.6,1.1-1,1.6
			c-0.4,0.6-0.9,1.1-1.5,1.5c-0.7,0.5-1.4,1-2.1,1.4c-0.8,0.5-1.8,0.7-2.7,0.5c-0.8-0.2-1.5-0.7-2-1.4c-0.6-1-1-2-1.2-3.2
			c-0.3-1.6-0.4-3.2-0.3-4.8c0.1-1.8,0.3-3.5,0.6-5.2c0.3-1.6,0.8-3.1,1.4-4.5c0.5-1.3,1.3-2.5,2.1-3.6c0.8-1,1.7-1.7,2.8-2.3
			c0.7-0.5,1.6-0.7,2.5-0.5c0.5,0.2,1,0.7,1.3,1.2v-0.5c0-0.5,0.1-0.9,0.4-1.3c0.2-0.4,0.5-0.7,0.8-0.9l2.1-1.1
			c0.2-0.2,0.6-0.1,0.8,0.1c0.2,0.3,0.3,0.6,0.3,1l-0.5,12.7c0,1,0.1,1.6,0.5,1.9c0.4,0.3,1,0.3,1.4,0c0.6-0.4,1.1-0.9,1.5-1.5
			c0.5-1,0.8-2,0.8-3.1c0.1-1.1,0.2-2.2,0.2-3.4s0-2.3,0-3.3c0-1.8-0.3-3.6-0.8-5.3c-0.3-1.2-1-2.3-2-3.1c-1-0.7-2.2-0.9-3.4-0.7
			c-1.7,0.3-3.4,0.8-4.9,1.7c-1.6,0.8-3.1,1.9-4.3,3.2c-1.3,1.3-2.4,2.8-3.4,4.4c-1,1.7-1.8,3.5-2.3,5.4c-0.6,1.9-1,3.9-1.3,5.9
			c-0.1,0.6-0.1,1.2-0.2,2.1s-0.1,1.8-0.1,2.7s-0.1,1.9-0.1,2.7s0,1.6,0,2.1c0,1.6,0.3,3.2,0.9,4.7c0.4,1.2,1.1,2.2,2,3.1
			c0.9,0.7,2,1.1,3.1,1.1c1.5,0,2.9-0.5,4.2-1.2c1-0.5,2-1.1,2.9-1.7c0.8-0.5,1.5-1.1,2.2-1.8c0.6-0.5,1.1-1.1,1.6-1.7
			c0.5-0.6,0.9-1.1,1.2-1.7s0.6-0.8,0.8-1.1c0.2-0.2,0.4-0.4,0.7-0.6l3-1.6c0.2-0.2,0.5-0.2,0.8,0c0.2,0.2,0.3,0.5,0.3,1.1
			c0,0.4-0.1,0.7-0.3,1c-0.6,1.1-1.3,2.3-2.1,3.6c-0.8,1.3-1.7,2.5-2.7,3.7c-1.1,1.3-2.4,2.5-3.7,3.5c-1.5,1.2-3.2,2.3-5,3.2
			c-1.9,1.1-4,1.7-6.2,1.7c-1.6,0-3.2-0.7-4.4-1.8c-1.3-1.3-2.2-2.8-2.7-4.6c-0.6-2.1-1-4.3-1-6.6c0-0.5,0-1.3,0-2.2
			c0-0.9,0-1.9,0.1-2.9s0.1-2,0.1-2.9s0.1-1.7,0.1-2.2c0.3-2.7,0.8-5.3,1.5-7.8c0.8-2.6,1.8-5.2,3.2-7.6c1.3-2.4,2.9-4.6,4.8-6.6
			c1.8-2,4-3.6,6.4-4.8c2.2-1.2,4.6-2,7-2.1c1.7-0.1,3.4,0.5,4.6,1.6c1.3,1.3,2.2,2.9,2.5,4.6c0.6,2.2,0.9,4.5,0.9,6.9
			c0,1,0,2.2-0.1,3.6S306,164.4,305.9,165.6z M287.1,172.9c-0.2,1.4,0,2.9,0.6,4.2c0.5,0.8,1.2,1,2.1,0.5c1.1-0.6,1.9-1.6,2.4-2.8
			c0.6-1.6,0.9-3.3,0.9-5c0.2-1.4,0-2.9-0.6-4.2c-0.5-0.8-1.2-1-2.2-0.5c-1.1,0.6-1.9,1.6-2.3,2.8
			C287.4,169.5,287.1,171.2,287.1,172.9L287.1,172.9z"/>
		<path class="st1" d="M233.6,288.3c0,0.5,0.1,1,0.5,1.3l-3.9-2.3c-0.5-0.3-0.7-0.9-0.6-1.4V155c0-0.8,0.2-1.5,0.6-2.1l4.1,2.3
			c-0.4,0.6-0.6,1.4-0.6,2.1V288.3z"/>
		<path class="st2" d="M355.4,231c0,0.1-0.1,0.1-0.1,0.2l-55.6-17.6c-4.4-1.9-9.5-0.3-12,3.7l-59.4,88.3l-2.2,1.3l0,0
			c-0.5,0.3-1.1,0.4-1.7,0.2l61.1-91c2.5-4,7.6-5.6,12-3.7L355.4,231z"/>
		<path class="st30" d="M282.2,225.9l0.1-0.1l-54.1,79.8l-2.2,1.3l0,0c-0.5,0.3-1.1,0.4-1.7,0.2l55.7-82.5L282.2,225.9z"/>
		<path class="st30" d="M355.4,231c0,0.1-0.1,0.1-0.1,0.2l-55.6-17.6c-4.4-1.9-9.5-0.4-12,3.7l-2.2-1.3c2.5-4,7.6-5.6,12-3.7
			L355.4,231z"/>
		<path class="st2" d="M358.8,130.6L358.8,130.6c-0.1-0.7-0.5-0.9-1-0.6c-0.2,0.2-0.5,0.4-0.6,0.7l-0.3,0.4L302,214.5l-8.2,11.4
			c-1.1,1.4-2.8,2-4.5,1.7l-7.1-1.7l-54-19.9c-0.4-0.1-0.7-0.1-1.1,0c-0.1,0-0.3,0.1-0.4,0.1l2-1.2l51.7,19l6.8,2.4
			c1.7,0.3,3.4-0.3,4.5-1.7l8.2-11.4l55.1-83.8c0.2-0.2,0.4-0.4,0.6-0.6l-4.8-2.8l2-1.1l3.3,1.9
			C357.5,127.8,358.5,129.1,358.8,130.6z"/>
		<path class="st30" d="M302,214.5l-8.2,11.4c-1.1,1.4-2.8,2-4.5,1.7l-7.1-1.7l0.1-0.1l0.3-0.5l4.6,1.1c1.7,0.3,3.4-0.3,4.5-1.7
			l8.1-11.3L302,214.5z"/>
		<path class="st2" d="M229.4,207.6l-11.8-6.8v101.3c0.1,1.8,1,3.4,2.5,4.3l2.8,1.6c1.6,0.8,3.4,0.8,5,0l1.4-0.8L229.4,207.6z"/>
		<path class="st31" d="M229.4,207.6l-11.8-6.8v101.3c0.1,1.8,1,3.4,2.5,4.3l2.8,1.6c1.6,0.8,3.4,0.8,5,0l1.4-0.8L229.4,207.6z"/>
		<path class="st2" d="M358.8,131.3v98.4c0,0.9-0.3,1.8-0.8,2.5c-0.4,0.6-0.9,1.2-1.5,1.6l-0.1,0c-0.1,0-0.1,0.1-0.2,0.1L228,308.1
			l0,0c-0.5,0.4-1.1,0.4-1.7,0.2c-0.4-0.3-0.7-0.7-0.8-1.2c0-0.1,0-0.3,0-0.5v-98.4c-0.1-1.2,0.8-2.2,2-2.3c0.3,0,0.5,0,0.8,0.1
			l54,19.9l7.1,1.7c1.7,0.3,3.4-0.3,4.5-1.7l8.2-11.4l54.9-83.4l0.3-0.4C358.1,129.4,358.8,129.7,358.8,131.3z"/>
		<path class="st2" d="M356.3,234l0.2-0.1l0.1-0.1c0.6-0.4,1.1-1,1.5-1.6c0.5-0.8,0.7-1.6,0.8-2.5L302,214.5l38,28.9L356.3,234z"/>
		<path class="st17" d="M356.3,234l0.2-0.1l0.1-0.1c0.6-0.4,1.1-1,1.5-1.6c0.5-0.8,0.7-1.6,0.8-2.5L302,214.5l38,28.9L356.3,234z"/>
		<path class="st2" d="M225.4,306.7c-0.1,0.7,0.2,1.3,0.8,1.6c0.6,0.2,1.2,0.2,1.7-0.2l0,0l44.2-25.5l10.1-56.7L225.4,305V306.7z"/>
		<path class="st31" d="M287.7,217.2l-61.5,91.1c-0.6-0.4-0.9-1-0.8-1.6V305l60-89l0,0L287.7,217.2z"/>
		<path class="st2" d="M358,232.2c-0.4,0.6-0.9,1.2-1.5,1.6l-0.1,0.1L228,308.1l0,0c-0.5,0.4-1.1,0.4-1.7,0.2l61.5-91.1
			c2.5-4.1,7.7-5.6,12.1-3.7L358,232.2z"/>
		<path class="st31" d="M218.1,191.7l2,1.2c-0.3,0.9-0.4,1.8-0.5,2.7v6.4l-2-1.2v-6.4C217.6,193.5,217.8,192.6,218.1,191.7z"/>
		<polygon class="st2" points="228.8,205 226.8,206.1 224.7,204.9 219.6,202 221.6,200.9 		"/>
		<path class="st14" d="M228.9,205l-7.3-4.1l-2,1.2l5.1,2.9l2.1,1.2l0,0l0.4-0.1c0.4-0.1,0.7-0.1,1.1,0l4.2,1.6l47.1,17.4l0.7-1.1
			L228.9,205z"/>
	</g>
</g>
<g id="Clouds">
	<g id="Clouds-2">
		<g id="Cloud">
			<path class="st29" d="M118.4,34.7l-7.6,4.4c0-0.3,0.1-0.7,0.1-1v-2.2c0-3.9-2.8-5.5-6.2-3.6c-1.5,0.9-2.7,2.1-3.7,3.5
				c-0.6-4.9-4.4-6.8-9.1-4.1c-5.1,2.9-9.2,10.1-9.2,16v3.3c0,1.3,0.2,2.6,0.8,3.8l-6.3,3.7c-2,1.3-3.3,3.5-3.4,5.9
				c0,2.2,1.5,3.1,3.4,2l41.3-23.9c2-1.3,3.3-3.5,3.4-5.9C121.8,34.5,120.3,33.6,118.4,34.7z"/>
		</g>
		<g id="Cloud-2">
			<path class="st29" d="M81.5,9.6L72.2,15c0.1-0.4,0.1-0.8,0.1-1.2V11c0-4.8-3.4-6.8-7.6-4.4c-1.8,1.1-3.3,2.6-4.5,4.3
				c-0.7-6.1-5.4-8.3-11.2-5c-6.3,3.6-11.3,12.4-11.3,19.6v4.1c0,1.6,0.3,3.2,1,4.7l-7.8,4.5c-2.5,1.6-4,4.3-4.2,7.3
				c0,2.7,1.9,3.8,4.2,2.4l50.8-29.3c2.5-1.6,4.1-4.3,4.2-7.3C85.8,9.3,83.9,8.2,81.5,9.6z"/>
		</g>
	</g>
</g>
<g id="Paper_Plane_1_">
	<polygon id="XMLID_1116_" class="st2" points="388.3,140.5 423.7,117.9 439.3,122.9 	"/>
	<polygon id="XMLID_1115_" class="st2" points="388.3,140.5 418.9,115 412.1,107.2 	"/>
	<polygon id="XMLID_1114_" class="st2" points="418.9,115 418.9,121 388.3,140.5 	"/>
	<polygon id="XMLID_1113_" class="st32" points="418.9,115 418.9,121 388.3,140.5 	"/>
	<g id="XMLID_1111_">
		<path class="st33" d="M424,114.5c-0.2,0-0.4-0.1-0.6-0.2c-0.3-0.3-0.3-0.8,0-1.1c1.1-1,2-2,2.9-3.2c0.3-0.3,0.7-0.4,1.1-0.1
			c0.3,0.3,0.4,0.7,0.1,1.1c-0.9,1.2-1.9,2.3-3.1,3.3C424.4,114.5,424.2,114.5,424,114.5z M429.6,107.1c-0.1,0-0.2,0-0.3-0.1
			c-0.4-0.2-0.5-0.6-0.3-1c0.9-1.7,1.5-3.6,2-5.5c0.1-0.4,0.5-0.7,0.9-0.6c0.4,0.1,0.7,0.5,0.6,0.9c-0.5,2-1.2,4-2.1,5.8
			C430.2,106.9,429.9,107.1,429.6,107.1z M432.4,96.5C432.3,96.5,432.3,96.5,432.4,96.5c-0.4,0-0.8-0.4-0.8-0.8c0-0.4,0-0.8,0-1.2
			c0-1.5-0.1-3.1-0.4-4.6c-0.1-0.4,0.2-0.8,0.6-0.9c0.4-0.1,0.8,0.2,0.9,0.6c0.3,1.6,0.4,3.2,0.4,4.9c0,0.4,0,0.9,0,1.3
			C433.1,96.2,432.7,96.5,432.4,96.5z M430.7,85.7c-0.3,0-0.6-0.2-0.7-0.5c-0.6-1.8-1.4-3.6-2.4-5.3c-0.2-0.4-0.1-0.8,0.3-1
			c0.4-0.2,0.8-0.1,1,0.3c1,1.8,1.9,3.7,2.5,5.6c0.1,0.4-0.1,0.8-0.5,1C430.9,85.7,430.8,85.7,430.7,85.7z M425.5,76.1
			c-0.2,0-0.4-0.1-0.6-0.3c-1.2-1.5-2.5-3-3.9-4.4c-0.3-0.3-0.3-0.8,0-1.1c0.3-0.3,0.8-0.3,1.1,0c1.5,1.4,2.9,3,4.1,4.5
			c0.3,0.3,0.2,0.8-0.1,1.1C425.8,76,425.6,76.1,425.5,76.1z M417.7,68.4c-0.2,0-0.3,0-0.5-0.2c-1.5-1.2-3.2-2.3-4.9-3.3
			c-0.4-0.2-0.5-0.7-0.3-1c0.2-0.4,0.7-0.5,1-0.3c1.8,1,3.5,2.2,5.1,3.4c0.3,0.2,0.4,0.7,0.1,1.1C418.1,68.3,417.9,68.4,417.7,68.4z
			 M339.1,65.5c-0.3,0-0.5-0.1-0.7-0.4c-0.2-0.4-0.1-0.8,0.3-1c1.7-1,3.5-1.9,5.4-2.8c0.4-0.2,0.8,0,1,0.4c0.2,0.4,0,0.8-0.4,1
			c-1.8,0.8-3.6,1.8-5.3,2.8C339.3,65.5,339.2,65.5,339.1,65.5z M408.2,62.8c-0.1,0-0.2,0-0.3-0.1c-1.8-0.9-3.6-1.7-5.4-2.4
			c-0.4-0.1-0.6-0.6-0.4-1c0.1-0.4,0.6-0.6,1-0.4c1.9,0.7,3.7,1.5,5.6,2.4c0.4,0.2,0.5,0.6,0.3,1C408.8,62.6,408.5,62.8,408.2,62.8z
			 M349,60.8c-0.3,0-0.6-0.2-0.7-0.5c-0.2-0.4,0-0.8,0.4-1c1.9-0.7,3.8-1.4,5.7-2c0.4-0.1,0.8,0.1,0.9,0.5c0.1,0.4-0.1,0.8-0.5,0.9
			c-1.9,0.6-3.8,1.2-5.6,1.9C349.1,60.7,349.1,60.8,349,60.8z M398,58.8c-0.1,0-0.1,0-0.2,0c-1.9-0.6-3.8-1.1-5.7-1.5
			c-0.4-0.1-0.7-0.5-0.6-0.9c0.1-0.4,0.5-0.7,0.9-0.6c2,0.4,3.9,0.9,5.9,1.5c0.4,0.1,0.6,0.5,0.5,0.9
			C398.6,58.6,398.3,58.8,398,58.8z M359.5,57.5c-0.3,0-0.7-0.2-0.7-0.6c-0.1-0.4,0.2-0.8,0.6-0.9c2-0.5,4-0.8,6-1.1
			c0.4-0.1,0.8,0.2,0.9,0.6c0.1,0.4-0.2,0.8-0.6,0.9c-2,0.3-3.9,0.7-5.8,1.1C359.6,57.5,359.5,57.5,359.5,57.5z M387.3,56.4
			c0,0-0.1,0-0.1,0c-1.9-0.3-3.9-0.5-5.9-0.6c-0.4,0-0.7-0.4-0.7-0.8c0-0.4,0.4-0.7,0.8-0.7c2,0.1,4,0.3,6,0.6
			c0.4,0.1,0.7,0.4,0.6,0.9C388,56.1,387.6,56.4,387.3,56.4z M370.3,55.8c-0.4,0-0.7-0.3-0.7-0.7c0-0.4,0.3-0.8,0.7-0.8
			c2-0.2,4-0.2,6.1-0.3h0c0.4,0,0.7,0.3,0.8,0.7c0,0.4-0.3,0.8-0.7,0.8C374.4,55.6,372.4,55.7,370.3,55.8
			C370.4,55.8,370.3,55.8,370.3,55.8z"/>
	</g>
</g>
</svg>
